<?xml version="1.0" encoding="utf-8"?>
<!-- Generator: Adobe Illustrator 19.2.1, SVG Export Plug-In . SVG Version: 6.00 Build 0)  -->
<svg version="1.1" id="Layer_1" xmlns="http://www.w3.org/2000/svg" xmlns:xlink="http://www.w3.org/1999/xlink" x="0px" y="0px"
	 viewBox="0 0 1920 1080" style="enable-background:new 0 0 1920 1080;" xml:space="preserve">
<style type="text/css">
	.st0{fill:none;stroke:#000000;stroke-miterlimit:10;}
</style>
<g id="Alaska">
	<path class="st0" d="M209.1,264.3C216,260,225,255,223,246c-1-5-6-5-10-7c1-6,1-12,0.8-18.2l-5.3-6.4l-2.6-4.9v-1.6l-1.9-2.6
		l-5.1-0.2C195,206,191,203,187,204c-3-13,0-25-1-38c5-9,6-19,4.5-29l0.1-2.1l-5.1-4.4H174l-4.7-2H160l-7-3h-7h-4l-2-5.2l-5.7-1.7
		l-2.3-2l-5.3,1.7l-11.3,3.3l-4.3,1.7l-9.7,4.3l-5.7,4.7l-8,0.7l-10.1-0.3l-3.1,2.2v5.2c0,0,3.8,3,4.8,3s5,3.3,5,3.3l-0.7,6.3
		L88,155l0.3,3.3l-5-2l-3-3c0,0-2.7-0.7-3.7-0.7s-8,1.7-8,1.7l-7.9,0.7l-3.3,3.3v2.7l2.8,2.3l-0.3,3.3l0.3,3.6l11.3,2.3H79l3.3,3.8
		l-2.3,3.3h-9h-6l-7.5,2.5l-5.4,3.7l-3.6,4v5.3l2.8,2.3l0.3,5.6l7.7,6.6H65l0.3,6.5l-1,2.9l3.3,5.6H73h4l1.7,5H86l-1.7,3.8l-5,3.7
		l-8,2l-4,3.6l4,6.9H83l3-2.5l8.7-2l4.3-3.3l2.3-2.3l8-0.3l1-4.7l4-2l1.3-5.7l0.6-2.7l3.2,1v4l6.8,1l4.7-3l2.3-2.3l6-1.3l2-8.3
		l3.3-2l4,3l1.7,3l1,2.8l3.7,0.8h9l4.5,0.5v2l4.8,2.7l5,5.3l5.7,4.3l6.6-0.3l2,8.3l4.3,7.3l6,8.7l4,3.7L209.1,264.3z"/>
</g>
<g id="NorthwestTerritory">
	<path class="st0" d="M414.5,209.5l6.8-11l12.8-8h7.3l6.8-3.5l1.8-3.8l-2-3.8l-2.5-2l-1.5-3.5l1.3-0.8l2.5,4.5l5.3,1.8l5.3-3l2.8-3
		l5.3-4h2h3.5l5-1.8l7.8-5l2.8-1.3l1.5-1.5v-4.3l3-3.8v-3.5l-1.9-2.5l-2.6-4.3l-4.8-2.5l-6.8,1.3l-7.3,5l-5.3,0.8
		c0,0-0.3-3.3-0.8-7.8s-9.5,0-9.5,0l-3.8-0.3l0.5-9.3l-2.8-4l-2.3-7v-5.5l1.9-2.8l3.6-0.3h3.3l1.5-3.3l5.5-2.5l2-2.8l2-3.5l-2.3-4
		h-2h-5h-5h-4.5l-3.3,5.3l-6.5,2.8L429,108l-1.3,8.7l-6.3,10.6c0,0,2.3,7,3.5,10.5c1.3,3.5-8,3.3-8,3.3s-1-5.3-9.8-8.5
		s-3.5,10-3.5,10L395,145l-5.8-1l-13.8-2.5l-2.8-2c0,0-6-0.3-10.8,0s-2.3,2.8-2.3,2.8l3.5,6.8l-7.3-1.5h-5.5l-10.8,2.6L331,146l-9-5
		l-5-5.5h-9.3l-3.5-2.1l-7.8,0.6v-5.5l-5-3.2l-8,2.9l-5.7-2.9l-4.8,1.3l-3.8,2.5l-5.2,3.3h-7.8l-4.3,2.6l-1.8,2.4h-6.5l-3.5-3.1
		l-6,0.5l-4.2,2.8l-4.8-2.5l-9-1.5l-9-1.5l-3,2.3h-4.5l-8.3,1.6l-0.7,0.9c1.5,10,0.5,20-4.5,29c1,13-2,25,1,38c4-1,8,2,11.9,1.1
		l5.1,0.2l4.1,0.5l56.4,1.1l97,2.7h3.5h40l7.7,1.2L414.5,209.5z"/>
</g>
<g id="Alberta">
	<path class="st0" d="M354,310.5h-3h-20h-35.2l-65.6,0.7l-2.1-0.8l-1.2-2.2l-3.7-3.3l-1.8-3.3l0.5-3.7l1.3-3.7l-1.8-2.5l-0.7-3.7
		l-12.3-21.5l0.6-2.3C216,260,225,255,223,246c-1-5-6-5-10-7c1-6,1-12,0.8-18.2l-5.5-6.4l-2.8-4.9v-1.6l2.4-2.1l56.5,1.1l97,2.7
		l1,1.4l-0.6,29l-1.4,3.2V256l-2,3.5V271l-2,1.7V291l-1,5.3V308v1L354,310.5z"/>
</g>
<g id="Ontario">
	<path class="st0" d="M355.5,309v-1v-11.7l1-5.3v-18.3l2-1.7v-11.5l2-3.5v-12.8l1.4-3.2l0.6-29l2.5-1.4h40l7.7,1.2l0.6,2.4L408,221
		l-1.1,5.9l4.5,6.8l3.8,7.7l4.2,4.8l7.2,4l7.8,1.5l5.3,3.2l7.8,6.7l15.1,1.5l3.8,1.5v7.5l-1.7,6l3.5,7.7l3,5l0.2,1.3v9l-1,1.8V333
		l-0.8,2.6l-0.8,0.9h-7l-0.8,0.1l-1-0.8l-1.2-3.4c-3-2.5-8-1.5-10-4.5c-3-1-4-1-5-2c-2-1-1-1-1-2c1-1,2-2,2-3c-2-6-8-14-15-11
		c-4,1-8,3-12,3c-1,0-3,2-4.5,2.2l-1.2-0.8l-4-3.3l-16.5-0.5h-2.5l-32.3-0.2L355.5,309z"/>
</g>
<g id="Quebec">
	<path class="st0" d="M549.6,350.4l2.7-2l1.7,1.9l-2.3,2l-2.3,0.9l-1.6,2.9l-1.1,3.3c0,0-2.4,9.7,7.2,7.2s9-3.1,9-3.1l1.6-6.6
		l1.5-4.8l12.5-10.4c0,0,1.4-6.8-2.6-7.8s-7,3-7,3l-4.9-0.6l-1.9-10.4l1.8-4.9c0,0,2-0.9-0.8-5s-5.8-6.4-5.8-6.4l-7.8,1.9l-5.3,2.8
		l-3.9,2.4l-3.3,0.6l-1.3-2.1l2.3-1.3l3-0.4l3.6-0.9l4.9-2.1l6.4-2.9h2.8l2.9,1.5l3,0.6l5.6-2.1l4-0.6l10.3-2.9l4.6-5.4l8.5-3.3
		l10.7-2.6l4.9-3.5V286l-0.6-3.5l3.9-3.4l-4.4-6.8l-3.8-0.9H602l0.5-3.1c0,0,2-5.9-2.9-8.6s-7.8,1-12-9.1s-6.9-14-10-15.6
		s-1.2-11.8-1.2-11.8s-1.7-4.4-6.3-2.9s-7,4.3-7,4.3l-0.4,6.5l-2.9,1.4l-4.3,1.5l-5.1,0.8l-2.9-4.5l-1.3-4.5l1.3-4.9l1.5-4.5l-4-4.4
		l-3.8-6.3l-6.9-3.3l-4.4-3l-5.6,1.4l-1,2l-6.9-0.3l-2.4-3.1l-2.5-0.8l-4.7,0.8l-1.6,1.1v4.4l-1,3.4v2.6v4l-2.9,2.3l-3.1,3v4.8
		l-4.4,1.9l-2.6,2.8l2.8,5.4l2.1,3.9l1.9,7l-1.4,4.8l-1.8,3l-3,3.4l-1.9,2.1l-4.9,0.8l-4.4,1.9l-1.9,6.1l-1,2l0.6,5.1l0.8,1
		l-0.5,5.9l-2.1,4l-2.5,3.5l-1.8,1.9l-1.1,0.8v9l-1,1.8V333l-0.8,2.6l0.3,0.9h4.5l1.6-1h6.9h8l2.3,4l3.6,3.3l2.9,1.4l5.4-0.9
		l2.4-0.8H518l4.9-0.8l2-3.5l2.3-5l2.3-5.4l7.3-2.1l5.1,1.5l3.6,3.6l3.2,5.8V347v2L549.6,350.4z"/>
</g>
<g id="Greenland">
	<path class="st0" d="M520,109.5h13.5v-3H527c0,0-7.2-6.2-0.3-7.8c6.9-1.7,14.9-2.1,14.9-2.1l3-2.1H539l-1-5.8l6.7-3.7l7.3-2.7l6-3
		l7-8.3l16.7-3.7l17-2l11.7-3.8l6.4-4.1h7.3l2.3-2.5c0,0-4.3-6,0-7c4.3-1,12.7,0,12.7,0l6.7-4.3l4.3-5.3h26l4.3,2.8L699,41l7,4.3
		l14.7-0.7l3.3,4.7l5.8-2l4.8,2V54l-9.2,4l-9.3,0.3l-4.3,2l9.7-0.7l13.2,0.7l9.8-4.3l8.3-2.3L765,54c0,0,5.3,3,0,6.3
		c-5.3,3.3-13,11.3-13,11.3l-4.7,11L747,89l3.3,3.7l1,6.3l-2.3,6.7l5.3,3.8l2,7.8l-5.7,3l-2,4.1l-1.7,5.1h-7l-8-1.8l5,4.7l5,5
		l1.7,5.3l3,2.3l-2.7,3l-4.7,3.3l-4.7,2l-6.3-3.7l-4.7-4L722,148l1.7,2.3l7.8,3l0.7,4.5l-4.2,2.5l-5.5,1.5l-7.7,1l-2.5,2.5l-5.5,6.2
		l-9.7,4H694l-6,5.3l-10,4.8l-4.7,3.9H659l-3.3,3.2l-1.7,4.7l-1.7,6.3l-5.3,7.5l-4.5,5l0.3,16.2c0,0-1.2,9.2-12.7,7
		c-11.5-2.2-15-7.8-15-7.8l-7.2-3.7l-9.8-8.5l-1.3-8.7l-0.7-4l-2-3.7l1.3-4.3l1.7-4.4l-5.7-5.5l0.7-7.8l3.3-3.8l3-4.3l0.5-3.2
		l-6.2-0.8c0,0-6.8-4.8-3.8-7.3s8.2-1.5,8.2-1.5l-2.3-4.5l-6-4.2l-3.2-4.7l-3.2-5.3l-3.8-6l-5-5.8l-12.3-7l-4.3-2.7l-5.3,2.7H536
		l-4,2l-8.5-0.3l-4.3-4.2l-0.8-9.7L520,109.5z"/>
</g>
<g id="WesternUnitedStates">
	<path class="st0" d="M226.3,424.5L226,421l-1.8-4.2l-3.5-9.3l-4.2-5.5v-7.5l-1.6-4.3c0,0,0.6-6.8-1.4-9.2s0-6.7,0-6.7l0.8-3.7
		l0.8-3.8l2.3-3.8v-2.5l0.9-6.7l1.3-6l1.2-4.5l1.7-6.3v-4l1-3.3l-1-3.7v-2.5h6v-2.7l2-5l-2.2-4l2-0.8l65.6-0.7H331h20h3h3l32.3,0.3
		l1.2,0.2v26v6l-1.2,1.2l-0.8,8.2V382c0,0-1.5,7.3-9,7.5s-19.7,1.3-19.7,1.3l-4.3,1.8v7.3c0,0-1.2,6.3-7.2,7.2
		c-6,0.8-9.2,3.3-9.2,3.3l-1.5,7.7l-1,6.5l-1.5,4.2l-2.2,4l-4,1.8l-3.8,2.5l-0.7,1.8v3l2.8,3.2l-0.8,3.3l-1.2,3.5l-0.8,1.8l-0.5,0.7
		h-9l-4.7-2l-12.7-7.1l-3.7-2.9h-4l-21-0.7l-7.5-5l-6-5.3l-9.5-1.3l-6.7-2.4l-6.7-2.3H228L226.3,424.5z"/>
</g>
<g id="EasternUnitedStates">
	<path class="st0" d="M336.3,471.2l6.9-4.3l3.9-5.7l8.1-1.6l5.1-4.2l3.8,0.8l2,1.7l4.2-0.2l3.3-3.8l4.5,1.6h5l4.5-1l3,2.7l6.3-0.3
		l0.8-5.4h8.3l2.7,1l4.3,2h4l2.7,1.5l1.7,2.3l8.2-1.3l5.3-2.5h2.2l1.7,3.2l1.3,7.5l2.4,1.2l2.1,5.2v6.5l2.5,3.3l1.8,5.5l6.5,0.8
		l7.7-3.7l3.5-5.5V463l-2.7-6c0,0-3.2-8.2,0.7-10.5s5.8-3.7,5.8-3.7l1.3-5.3l10.7-5.4l8.3-4.6h4.3l3.2-5.5l4.7-3.8l-1.2-7.8l-4-1.7
		l-2.7-4l1-2.8l2.7,1.3l4.2-0.7l1.3-4.5l1.3-3.5l4.5-3.2l9-5.5l5.6-5l2.9-2.3V371v-4l4.5-5.2l3.7-3.7l3.7-3.5l3.5-1.5l3.3-1.3
		l2.3-1.3V349v-2v-10.4l-3.2-5.8l-3.6-3.6l-5.1-1.5l-7.3,2.1l-2.3,5.4l-2.3,5l-2,3.5l-4.9,0.8h-10.5l-2.4,0.8l-5.4,0.9l-2.9-1.4
		l-3.6-3.3l-2.3-4h-8h-6.9l-1.6,1H470h-1h-7l-0.8,1.8l1.2,4.2c0.1,1.7,0,4.4-1.4,5.5c-2.1,1.7-3.6-0.5-5.2-1.7c-3.2-2.5-3,1.6-4.2,4
		c-1.6,2.9-1.9,5.8-4.5,7.9l-0.7,0.8v2l1.5,0.5h6l3.6-2.5l2.9-2.3l3.1-1.1l1.6-2l1.1-2.9l2.3-1.5l3.1-0.8h3.3l1.5-1.5l2.6-1.5h3.9h1
		l1.5,1.5v1.1l-2.4,4.1l-2.6,3.4l-3.1,1.5l-4.4-0.6h-6.5v6.3l-2.7,1.5l-4.6,3.1l-5.9,2.9l-3.1,1.6l-3,1l-3.1-0.9l-1.8-1.4l-2.8-0.6
		v-4.6l2.8-1.2l2.6-1.8l0.4-4.1l-3.8-0.2v-5.3l-2.6-0.8c0,0-1.2-4,2.1-10.2c3.3-6.2-3-2.7-3-2.7l-2.7,2.8l-4.2,6.8
		c0,0-1.3,6.3-1.2,6.8s0.2,5.7,0.2,5.7l-3,3.3l-2.2,4h-4l-0.8-1.7l-0.2-8.7l0.2-7.7l2.3-5.5l2.2-3.3l1-2.5l2.5-3.3l2.3-2l4.3-2.2
		l1.5-2.5l-1.2-0.5l-2.3,0.3l-4.5,1.5l-2.8-1.5v-2.5h-2.3L422,327l-3.3,1.5l-2.3-0.7l-2.8-1l-6.6,1l-4-1.5l-1-1.9l2.9-2.3l6.9-5.2
		l0.6-2.7l-4-3.2l-16.5-0.3l-1.3,0.2v26v6l-1.2,1.2l-0.8,8.2V382c0,0-1.5,7.3-9,7.5s-19.7,1.3-19.7,1.3l-4.3,1.8v7.3
		c0,0-1.2,6.3-7.2,7.2c-6,0.8-9.2,3.3-9.2,3.3l-1.5,7.7l-1,6.5l-1.5,4.2l-2.2,4l-4,1.8l-3.8,2.5l-0.7,1.8v3l2.8,3.2l-0.8,3.3
		l-1.2,3.5l-0.8,1.8v1.5l3.2,3.2l2.2,5.2l1.7,2.5l4.5,4.3L336.3,471.2z"/>
</g>
<g id="CentralAmerica">
	<path class="st0" d="M373.3,584l9-0.8l4.7-3l3-3.8l1-1.7l-1.7-0.8l-3.7-1.2l-1-4.2l-4.8-1.3l-4.5,1.2l-3,2.2l-3.5,0.8l-2.8-0.8
		c0,0-6.3-1.7-0.6-8.3c5.7-6.7,7.1-9.3,7.1-9.3V549l5.8-5.5l3.8-4.3c0,0-0.2-4.3-4.3-6.5c-4.2-2.2-8-6.3-8-6.3l0.2-4.3l-3.2-2.5h2.2
		h3l4.2-3l2.5-3.2l1-7l3.7-3.8c0,0,0.8-6.8-4.5-6.2c-5.3,0.7-9,2.5-9,2.5l-5.7,0.7l-3,4l-1,2.2l-0.8,4.3l-2.8,2.2l-4.7,0.2l-4,0.8
		l-5.7,1.3l-5.7-0.5l-3.7-6.7l-1.7-7.3l1.7-9.8l2.3-5.7l-0.2-4.3l-3.8-1l2.1-3.2l2.3-4.5v-1l-4.3-4.3l-1.5-2.5l-2.1-5.2l-3.1-3.2
		l-0.5-0.8h-9l-4.7-2l-12.7-7.1l-3.7-2.9h-4l-21-0.7l-7.5-5l-6-5.3l-9.5-1.3l-6.7-2.4l-6.7-2.3H228l-1.2,1.5l3.6,5.9l3,5.2l1,4.5
		v8.3l1.7,2.8l2.8,2.7l1.5,6.4l3.3,6.1l4.1,5.3l3.6,4v4.7l3.5,3.7l2.3,6.2l1.8,4.3l3.5,6.2l3,2.8c0,0,11.3,3.5,10.3-5.2
		s-8-14.2-8-14.2l-2.8-7.2l-2.7-6.3l-3.8-5.2l-2.8-6.3l-1.3-5.7l-4-6.3l-2.3-4.3l-0.3-4l3.6,2l2.8,5.8l4.7,7.5l2.7,3.5l1.8,3.8
		l2.5,4.5l0.8,5.3l3,2.8l3.2,4l3.2,5.5l5.5,6l3.3,5.3l2.2,6.3l0.8,5.3l-2.3,2.7l1.2,4.8l5.7,5.3l6.3,3.2l5.7,3.3l6.2,2.7l3.2,0.8
		l6,2.7l8,1l2.6,4.8l-1.3,6l1.3,3.7l5.8,2.2l2.2,3l1.3,6.3v6.2l2.2,4.2l3.2,3.8l1.5,4.7l1.7,2.7l2.3,1.2l3.5,3.8l4.3,2.3h4.8
		l4.2-0.7l1.8-3.2l3.3-2L373.3,584z"/>
</g>
<g id="Venezuela">
	<polygon class="st0" points="577.2,604.3 571,600.6 559.5,599.2 554.1,597.5 540,597.5 535.6,593.6 528,591.4 525.4,585.6 
		518.9,581.9 513,580.4 510,576 503.1,573.5 496.8,572.3 494.9,570 493.4,566.8 487,565.1 480.8,567.3 477.1,570.1 468.6,568.4 
		460.1,567.5 456,567.5 452,563.8 447.9,561.5 444,561.5 440,556.5 435,556.5 433.3,557.8 430.8,556.6 429,554.5 424,554.5 
		420.8,556 416.5,559 414,561.8 406.8,561.4 405,563.5 401.6,562.3 397.5,564.6 393.5,566.6 392.4,568.4 391,570.9 390.4,573.3 
		391,574.7 390,576.3 387,580.2 382.4,583.2 373.5,584 373.5,585.4 370,588.1 368.9,593.3 374.3,597.1 375.8,602.4 373.9,606.9 
		371.5,608.5 374,611.5 374.1,613.6 372.3,616.3 367.6,617.1 366.6,618.3 366.5,620 369.3,626 375.7,632.2 379,635.7 387.7,637.5 
		393.8,638.5 398.7,641.7 403.5,644.5 411,644.5 418,644.5 421,647.3 422.2,649.3 423.3,649.9 428.3,652.3 435.5,650.5 440.6,644 
		439.7,639.6 435.5,632.6 440,626.5 445.2,623.4 448.9,622.5 455,622.5 457,626 466.6,628 474.9,625.3 477,621.8 478.5,619 
		477,611.3 481.1,609 486.3,611.4 491.5,611.3 501.1,607.1 505.6,604.5 508.5,604.5 508.5,610 507.9,612.1 509.6,615.8 516.4,623.3 
		522.6,623.9 541.6,623.4 550,620 559.9,619.5 566.6,618.4 571.1,614.5 575.6,609 578.3,605.6 	"/>
</g>
<g id="Peru">
	<path class="st0" d="M560.8,793.9l-5.8-13.7l-4-8.7l-3.8-1.9l-4.5-2.9l-4.1-1l-3.2-2V761l-0.7-2.2l1.5-2.9l3.7-1.8l-3.5-5.2
		l-5.3-9.2l-4.8-6.7l-1.3-2.7h-5l-2.8-1.2l-0.8-4V722l-2.7-0.7l-2.8-0.8l-1.3-4.2l-2.8-0.8H500l-7-4.6l-4.7-2.4H483l-2.3-3.5l-5.2-4
		l-4.3-5.4l-2.3-2.1H464l-3,1.3l-4.7,2.5l-5.2-0.2l-3.8,1.8l-6.7,3.8l-4.2,0.7l-3-0.8l-5.8-1.7l-2.7-1.8l3.3-3.8l3.7-2.5l2.2-3.1
		l-1.5-2.3H425l-3.3,2.5l-2.8,1.7l-2.7-2.2l-3.8-5.2l-5.7-3.7l-6.5-1.3l-4-4.2l3.3-6.3l4.2-4l5.3-2.7l1.2-4.2l5-3l5.3-1.5l2-3v-1.2
		l-1.3-2l-3.2-2.8h-7h-7.5l-4.8-2.8l-4.8-3.2l-6.2-1l-8.7-1.8l-3.3-3.5l-6.5-6.2l-2.8-6l-1.6-1l-3.2,3.3l-1.5,2.8l-2.3,1.5H351
		l-0.7,3.3l1.7,4.8l-4.5,2.8l-2.2,3.8l1.2,4.2l-2.3,1.8l1.5,4l6.5,0.7l-1.8,1.8c0,0-2,0.8-3.3,1.3s-5.9,2.5-5.9,2.5l-1.6,2.8v3.5
		l2.8,0.8l0.2,3.3l-1.7,2.5l1.3,3.3l7.7,4.5l4.8,5.3l7.2,9.7l2.8,3.7l1.8,4.5l5.9,5.2l5.8,5.7l1.7,3.5l1.3,6.5l7.3,3.7l9.3,4.3
		l12.5,4.7l16.3,9.2l7.8,5.2l1,3.7v1.8l1,0.9l7.2,2.5l8.3,4.9l6.5,9.2c0,0,4.5,7.2,8,2.5c3.5-4.7,5.3-8.7,5.3-8.7l4,2l2.3,2.2
		l3.3,1.5l4.7-1.2l3.7-1l4.3,2.2l2.2,1.8l5.2-2l3.3,1.7l1.2,3.7l2.8,3.3h3.2l5,1.8l3.5,4.2h7.5h6l1.2,2.7l-1,2.7l-1.1,3.2l-3.6,5.2
		v3.8l1.7,2.2l7.2-1.2l7-1.2l4.3-2.5l6.3-4l5.3-2.7L560.8,793.9z"/>
</g>
<g id="Brazil">
	<path class="st0" d="M575.8,845.6l1.9-6.1l5.4-2.6l4.5-8l5.8-9.5l7.5-10.5l1.6-4.7V789l6.5-3.6l19.5-12.6l4.8-1.5l6.5,2l4.5-2
		l1.3-4l7-3.3v-8l6.3-2l1.3-5.3l3.5-2.5V739l6.3-5l-1.8-6.8l1.8-6.8l2.3-8.8l1.8-4.5l7.5-5.8L693,691l12.5-9.5c0,0,5-15.3,0-19.8
		s-16.3-3.5-16.3-3.5l-12.8-7.8l-7.5-4h-11h-6l-4.8-1H640h-4l-2-5.8l-6.8-2.5l-12.3-2.8h-6l-2.5,2l-1.3-3H599h-10l5.5-3.8l2.8-3.8
		l-2-4.5l-5.3-3.8l-4-8l-6.5-4.6l-1.3,0.5l-2.6,3.4l-4.5,5.5l-4.5,3.9l-6.8,1.1L550,620l-8.4,3.4l-19,0.5l-6.3-0.6l-6.8-7.5
		l-1.8-3.6l0.6-2.1v-5.5h-2.9l-4.5,2.6l-9.6,4.1l-5.3,0.1l-5.1-2.4l-4.1,2.3l1.5,7.8l-1.5,2.8l-2.1,3.5l-8.3,2.8l-9.6-2l-2-3.5h-6.1
		l-3.6,0.9l-5.3,3.1l-4.5,6.1l4.2,7l0.9,4.4l-5.1,6.5l-7.2,1.8l-5.1-2.3l-1.1,0.6l-1.8,3l-5.2,1.5l-5,3l-1.2,4.2l-5.3,2.7l-4.2,4
		l-3.3,6.3l4,4.2l6.5,1.3l5.7,3.7l3.8,5.2l2.7,2.2l2.8-1.7l3.3-2.5h7.7l1.5,2.3l-2.2,3.1l-3.7,2.5l-3.3,3.8l2.7,1.8l5.8,1.7l3,0.8
		l4.2-0.7l6.7-3.8l3.8-1.8l5.2,0.2l4.7-2.5l3-1.3h4.8l2.3,2.1l4.3,5.4l5.2,4l2.3,3.5h5.3l4.7,2.4l7,4.6h6.8l2.8,0.8l1.3,4.2l2.8,0.8
		l2.7,0.7v3.3l0.8,4l2.8,1.2h5l1.3,2.7l4.8,6.7l5.3,9.2l3.5,5.2l-3.7,1.8l-1.5,2.9l0.7,2.2v2.7l3.2,2l4.1,1l4.5,2.9l3.8,1.9l4,8.5
		l5.8,13.5h1l1.3,1.4l0.8,3.7l-2.5,1.7l-3.1,3l-1.5,5.1c0,0-4.3,3.4-8.4,7s1.6,4,1.6,4h3.4l3.3,0.8l1.1,7.6l2.3,2.6h3.1l4,0.8
		l-0.6,4.7v3.5l2.9,1.3l3.7,0.8l2.5,3"/>
</g>
<g id="Argentina">
	<path class="st0" d="M575.6,844.7l-2.5-3l-3.7-0.8l-2.9-1.3V836l0.6-4.7l-4-0.8H560l-2.3-2.6l-1.1-7.6l-3.3-0.8H550
		c0,0-5.8-0.4-1.6-4s8.4-7,8.4-7l1.5-5.1l3.1-3l2.5-1.6l-0.8-3.6l-1.3-1.2l-0.5,0.8l-5.3,2.7l-6.3,4l-4.3,2.5l-7,1.2l-7.2,1.2
		l-1.7-2.2v-3.8l3.6-5.2l1.1-3.2l1-2.7l-1.2-2.7h-6h-7.5l-3.5-4.2l-5-1.8h-3.2l-2.8-3.3l-1.2-3.7l-3.3-1.7l-5.2,2l-2.2-1.8l-4.3-2.2
		l-3.7,1l-4.7,1.2l-3.3-1.5l-2.3-2.2l-4-2c0,0-1.8,4-5.3,8.7c-3.5,4.7-8-2.5-8-2.5l-6.5-9.2l-8.3-4.9l-7.2-2.5l-1,1.1v5l1,2.8
		L436,770l-2.2,2.8l-1.5,4.2l4.2,5.7v8.3l-2.1,2.9l2.1,3.3l-2.1,10.8l-2,1.8l-1,4.8v4.5l4,4.3l-4,3.5l2.5,4.5l1.5,7l1,7.3l-1,11.8
		L434,863l-2.5,3v5l-5,4.8v7.3l3.3,5.3l4.3,5.5l-0.5,2.8H431l0.5,4l2.5,2.5l-0.3,6l-0.8,3.5l3.5,3l6-1.5l1.8,1.5l-1.8,4v5.5l1.8,4.5
		l4.5,3.8l-4.3,2.9l0.3,3.4H441l-4.5,2v3.5l-3.3,3.3l0.5,3.3l2.8,2h3.5h3l-0.5,4.8l0.5,5.3l5.8,5.3l-3.5,3.8l2,4.5l3.3,1.5v5.5
		l2,2.3v2.8l4.5,2.3l2.8,4.3l5.9,4.3l5.9,2.8v1.5l-3,1.5l0.3,3.8l4,2.3h4.3h3l1.3,2.3l3.5-1.5l5.5-0.5l5.5-0.8l8.3,0.3
		c0,0,13.8-2.3,3.3-7s-15-13-15-13l-4.8-6.5l-1.5-5.5l3-3.3l5-5l-1.3-6l8.5-5c0,0,4.5-5.3-0.5-8.3s-10.8-4-10.8-4s-3.3-7.3,3-8.3
		s9.3-5.5,9.3-5.5l1.5-7.3l-0.5-10.5L498,910l0.5-3.3l3.3,1l2.8,1.5l6.7,0.5l4-2.5l2.8-4.3l-2-3.5l0.8-3.8l-0.5-3.5l6.3,0.8
		l11.3-1.8c0,0,20-7.8,18.8-16s-4.8-9.3-4.8-9.3l-0.5-4.5l-6.5-4l3,0.5l3.8,1.5l3.5,1.5l6,0.5l6.3-1l8.5-6.5l4.8-8.5L575.6,844.7z"
		/>
</g>
<g id="SouthAfrica">
	<path class="st0" d="M1135.4,846.4l3.9,6.8l3.2,2.4V868l-2.6,3.3l0.6,9v8.8l-2.9,3.5l-11.1,6.9l-5,2.1l-7.4,0.9l-10.3,9.9l-6.4,4.9
		v2.9l2.1,2.9l0.3,6.3l0.9,7l-1.1,6.3l-2.8,3.9l-12.4,6.3l-2.8,2.3l-1.3,3.4l0.8,5l-2.1,5l-5.5,3.8l-8.4,8l-2.6,6.1l-4.3,4.3
		l-10.3,5.4l-6,5.4l-7.3,5.3l-5.6,2.2H1018l-5.3-0.6l-1.8-0.6l-3.5,2.1l-4.5,1.2h-8l-5.9-1l-7.6-9.1l-1.6-6.8l5.9-4.4l-4-1.8l-3-8
		l-6.4-11.4l-8.8-10.9V941l-1.6-14.4l-5.8-14.4l-7.5-10.3l-2.8-7.8l1.5-12.9l4.5-5.6l1-7.8l6.3-5.5l0.9-6.9l-4.4-8.8l0.8-6l1.5-2.3
		l-3.1-8.5l-3.3-3.9V822l-4.4-7l0.9-1.5h12l5.8,3h7.3l4,2.5l6.5,2v4l2,3.3c0,0,4.5,1.5,6.3,0s10.3-1.3,10.3-1.3l5.5,0.3l4.3,1.7
		l2.8,5.3l3,5.5l-2.3,7.3l2.3,2.5h6.5l4,2.4l7.5,2.6h9.5h8l4,5.3c0,0,7,2.5,7.5-2s0-8.3,0-8.3l-2.8-4l-1-6.3l7.8-5.3l1.6-0.4
		l5.1,3.4l1.8,5l4.5,3.5l4.3,4.5l2.5,1.3l0.9,1.9l-1.3,3.4l-1.8,2l1.4,2.6l2.9,5.4v8.5v5c0,0,10.5,13.5,11.9-1.6
		c1.4-15.1,4.7-21.1,4.7-21.1l10.8-4.8h5.1l11.3-7L1135.4,846.4z"/>
</g>
<g id="Madagascar">
	<polygon class="st0" points="1165.5,908 1165.5,900 1173.3,891.5 1180.5,889.5 1191.3,887.8 1198,883.3 1200.3,885.5 1202.3,879 
		1207,877.8 1209,870 1212.8,868.3 1219.5,866.8 1221.3,859.4 1225.8,855.5 1232,855.5 1234.5,859.6 1237.3,866.3 1240.5,868.5 
		1239.3,875.5 1239.8,885.5 1239.3,890 1237.3,893.8 1232.3,895 1230.8,898.3 1226.8,902.8 1227,908 1226.5,915.8 1216.8,931.8 
		1211.3,941.3 1203,955.8 1199.5,960 1196.5,961.5 1192.8,967.3 1191.3,973.8 1185,977.5 1180,977.5 1176.8,975.5 1171.8,975.8 
		1170,977.5 1162.8,979 1157.5,977 1153.5,971.8 1150.8,963.8 1152.5,958.8 1152,954.3 1148.5,949.5 1148.5,941 1156.5,935.8 
		1162.5,931.8 1164,927.5 1166.8,925 1164.3,920 1161.5,916 1164.3,909.8 	"/>
</g>
<g id="Congo">
	<path class="st0" d="M1068.5,832.1l-2-4.4l-0.3-6.5l1-9l8.8-14.5l8.3-9.5l9.8-7.8l4-4c0,0,0.8-5.5,3.8-9.8s-5.8-6.3-5.8-6.3h-21
		h-13.8l-3.8-1.4l-3.3-3.1l-7.3-5.7l-4.5-9.5l-4.3-6.5l-14.5-17.7l-1.5-0.1l-10.5,8.5l-10.3,6l-12.5,5l-5.5,6l-2,6.8l3.8,11
		l-2.8,7.3l-8.5,4.5h-17.5l-7.5,5h-12l-2.1,1.3l-2.6,6.3l-3.8,2.8v3.3l2,5.3l5.5,4.8l5,7l5.3,6.5h1.8h12l5.8,3h7.3l4,2.5l6.5,2v4
		l2,3.3c0,0,4.5,1.5,6.3,0s10.3-1.3,10.3-1.3l5.5,0.3l4.3,1.7l2.8,5.3l3,5.5l-2.3,7.3l2.3,2.5h6.5l4,2.4l7.5,2.6h9.5h8l4,5.3
		c0,0,7,2.5,7.5-2s0-8.3,0-8.3l-2.8-4l-1-6.3l7.8-5.3V832.1z"/>
</g>
<g id="EastAfrica">
	<path class="st0" d="M1134.8,844.8l1.4-5.2l2.6-5.2l-5.8-5.9l4.1-8.6l6.3-8.1l11-10l9.5-8.7l7.3-6.7l14.5-8l10.8-11.2l8-15l6.5-15
		l4.8-7.3V724v-6l-7.3-3.8l-5,2.4l-6.8,2.4l-9.5,1.3l-5.8,2l-7.1-0.2l-4.2,2.8l-5.8-3.7l-1.5-8.2l-8-9.5l-9.5-7l-7.5-3.2l-4.9-15.2
		l-9.6-7l-4.8-9l2.3-5.2l0.5-3.7l-11.8-9.4h-1.8l-5.4,0.6l-9.4,0.4h-18.6L1057,644l-2.6-0.7l-4.9-0.9l-4,0.9l-5.8,4.1l-10.1,7.4
		l-10.4,8.3l0.3,1.4l4.3,6.3l0.9,9.8l-1.4,12.5l-3.8,7v6.9l3.8,8.7l0.5,1.1l14.5,17.7l4.3,6.5l4.5,9.5l7.3,5.7l3.3,3.1l3.8,1.4h13.8
		h21c0,0,8.8,2,5.8,6.3s-3.8,9.8-3.8,9.8l-4,4l-9.8,7.8l-8.3,9.5l-8.8,14.5l-1,9l0.3,6.5l2,4.4l1.6,1.4l5.1,3.4l1.8,5l4.5,3.5
		l4.3,4.5l2.5,1.3l0.9,1.9l-1.3,3.4l-1.8,2l1.4,2.6l2.9,5.4v8.5v5c0,0,10.5,13.5,11.9-1.6c1.4-15.1,4.7-21.1,4.7-21.1l10.8-4.8h5.1
		l11.3-7L1134.8,844.8z"/>
</g>
<g id="NorthAfrica">
	<path class="st0" d="M1023.3,715.6l-3.8-8.7V700l3.8-7l1.4-12.5l-0.9-9.8l-4.3-6.3l-2.3-1.3l-10.4-10.4l-8.1-3.1l-7.4-2.4l-8.1-4.7
		H975l-10.9-1.8l-8-5.5l-11.1-11l-4-11l-2.8-4l-0.8-12l-2-4.4l1.4-5.4l9.6-10.1l5-7.4l2.9-2l1-1.1l1.9-0.8l4.5-3.6l1.8-3.5v-4.6
		l-0.8-3.1l-2.8-4.9l-4.1-3.5l-5.9,0.5l-3.9,2.6l-3.9-1.8l-4.8,0.7l-3.8,3.8l-6.8-4.5l-8.4-4.3l-6.8-2.8l-7,0.4l-3.9-2.1h-9.1
		l-7.6,1.2l-4.4,1.2l-5.4,2c0,0-3.3-2.8-5.9,2.1s-4.5,1.9-9.5-2.1s-10.5,3.7-10.5,3.7l-4.9,4.7l-9,2.9l-9,3l-2.2,1.2
		c0,0-5.5,1-8.5,1.5s-5-1.5-5-1.5h-11l-2.6,1.5l-1.4,9.7l-3,8.3l-2.5,4.5v4.5l-4.8,7l-7,3.5l-4,9.3l-5.3,6.8l-4,1.8v6.8l-5,4.5
		L755,628l2,9.8l3,3.3l-2.3,3.8l2.3,6.3l1,6l-4.8,3.5l-1.3,9l-3.8,5.8l-2.8,4.6l2.8,5.6h2.8l-2.3,5.3l3.3,7.3l3,2.5l4.5,2l7,9.5
		l4.5,4.3l0.3,5.3l8.5,11.5l7.3,2.3l9.5,6.8l6.3,6l12.5,3.3l7.3-4.5l8.8-1l9.5,0.6l6,5.1h6.3l7.3-3l7.8-4h12h15l7,3l1.3,6.6l5.8,4.4
		h11l7.5,1.3l7,4l-2,10.3l1.5,2.5h12l7.5-5H974l8.5-4.5l2.8-7.3l-3.8-11l2-6.8l5.5-6l12.5-5l10.3-6l10.5-8.5L1023.3,715.6z"/>
</g>
<g id="Egypt">
	<path class="st0" d="M1100.4,605.3l-4.4-3l-3.1-4.5l-3.3-4l-5-8.1l-5.3-4.4h-1.4l-4.3,1.3l-7.5,2.4l-6.3,5l-6.1-2.8l-7.1-4.9
		l-6.6-0.1l-2.9-1.5l-1.5-0.6l-2,1.3l-3.9-0.4l-1.9-4.9l-2.8-2.6l-6.4-1.9l-4.5,2.6l-5.5,3.6l-3.5,3.4l0.8,2.9l1,5.3l-1.1,2.3
		l-3.5,0.8l-3.3-3.6l-5.3-5.5h-7.5l-2.2-4l-4.9-3.5L971,573l-8.5-1.6l-7-2.9h-1.2l-2.9,1.8l-5,7.1l-9.6,10.1l-1.4,5.4l2,4.4l0.8,12
		l2.8,4l4,11l11.1,11l8,5.5l10.9,1.8h8.3l8.1,4.7l7.4,2.4l8.1,3.1l10.4,10.4l2-0.1l10.4-8.3l10.1-7.4l5.8-4.1l4-0.9l4.9,0.9l2.6,0.7
		l17.4,0.5h18.6l9.3-0.5l5.2-0.8v-1.8l-11.3-19l-6.1-8.9c0,0-4.1-7.4,0-7.6s9.5,0,9.5,0L1100.4,605.3z"/>
</g>
<g id="WesternEurope">
	<path class="st0" d="M880.8,421.8l-4.2,3.4l-1,4.6v4.3l2,2.8l-1.3,2.5l-3.8,2.3l-1.4,2.9l4.1,2.9l4.5,2.9l1.6,1.9l-1.9,3.3l-3,2.5
		v3.3l0.6,5.1l4.3,5.4l-0.4,1.7l-3.8,4.3l-7.7-0.6l-6-1.8l-4.3-4l-6,0.7l-0.7,3.6v5.4l3.5,3.1l1.9,2.9l0.1,3.1l-1.1,2.8l-4.3,3.3
		l-1.9,2.2l2,3.5l0.3,3.8l-0.1,5.9l3.7,5v5.5l-1.2,5.7l-6,3.5l-7.7,4.3l-2.2,5.7v3.8l-4.7,2.5l-5.2,1.3l-4.8,2.4l-0.6,2.6l-0.8,1.8
		c0,0-5.5,1-8.5,1.5s-5-1.5-5-1.5h-11l-2.6,0.2l-1.5-5l-9.1-4.3l-7.2-2l-2.6-1.9h-23l-2.8-5.3l-4.6-3.8l-7.1-3.8l1-7.1l5.4-7.3
		l4.9-7.4l1.1-7.5l-2.4-6.4l-7.6-10.8c0,0-6.4-6.6,1.1-10.8s11.3-7.5,11.3-7.5l5.4,1l3.3,3.4l6.3,0.1l6.3-0.3l4.9-1.9l5.3,0.5l3,1.6
		l8.3-5.3l2.4-4.1l-1.5-5.9l2.9-4.4v-5l-6.6-1.3l-1.8-6.1l-7.3-4.4l-7-6.3c0,0-7.5-2.5-1.6-7s10-5.9,10-5.9l5.3,1.8l2.5,2.1l5.9-3.4
		h5.1l2.8-5.9l3.9-5.3l6.9-0.6l1.9,2.8l5.3-1.3l6-0.5l3.3-5l3-5.1l11-5.3l6.3-2.9h1.9l0.9,0.8l3.3,6.4l4.4,7l5.3,0.9l2.6,3.3
		l2.3,4.4l3.3,7.3l2.8,4.9L880.8,421.8z"/>
</g>
<g id="SouthernEurope">
	<path class="st0" d="M881.4,471.5l-4.3-5.4l-0.6-5.1v-3.3l3-2.5l1.9-3.3l-1.6-1.9l-4.5-2.9l-4.1-2.9l1.4-2.9l3.8-2.3l1.3-2.5
		l-2-2.8v-4.3l1-4.6l4.2-3.4l1-0.7l1.8-1.3l5.8-2.8l5.5-0.3l2.2,2.3l4.7,2.8l6-3.3l3.7-0.2l8-1.7l9.3-3.2l0.8-2.1l2-8l4.3-1.7
		l10.2,0.2l3.2-1.3l5.7-1.7l4.3,1.3l3.3,3.3l-1.7,3.2l-3.3,5.3v11.7l22.5,0.8h3.5v-17.2l2.3-3.6l4.3-4.9l3-3.7l5.7-3.3l1.7-1.6
		l2.5-4.7h8.1l1.6,4.7l2.8,5.3l8.9,7.2l2.1,10.4l-1.7,4.9l1.7,4.7l-0.6,8.7l3.4,5l4.5,0.8l0.7,0.9l5,2.8v5.5l-4.8,4.6l-1.9,6.3
		l-5.6,3.5l-0.8,4.8l-0.6,1.3l-1.5,1.4l-5,0.3l-2.4,3.6l-3.4,6.3v5.4l-3,3v9l-0.9,1l-2.3,1.8l-1.1,3.8l-8.3-1h-2l-1.9,1.3l5.1,5.8
		l3.6,7l-1.6,4l-1.8,3.9l2,3.5l3.8,3.3l1,3.9l-3.5,1.4l-6,1.3l-3.6-1.9l-6.1-1.4h-7.3l-3-2.3l-2.9-3.6l-0.8-4.9l-0.8-6.3l-1.9-4
		l-3.1-6.7l-1-4.5l-2.9-2l-3.5-1.8l-2.9-4.4l0.4-3v-3.9l-1.3-5l-3.1-2.3l-3.1-2.8l-6.8-1.5l-3.6-3.4l-4.9-4.2l-3.8,0.8l0.5,3.5
		l4.8,4.3l4.4,1.6l3.5,6.1l3.8,3.5l6,5.1l3.8,4.4l0.8,5.6l-5.5,4.6l-7.9-0.9l-2.6-2.5l-4.9-2.4l2,3.4l2.3,5.5l-2.6,5.9l-6.9,8.3
		l-6.1,4.9l-6,1.4l-11,1.4c0,0-8.4,0.6-18.5-3.4s-3.5-10.4-3.5-10.4l7.5-1.9l6.5-0.1l8.6,2l1.5-2.4l-0.5-3.4l2.6-3l1.2-3.4l-2.8-1.1
		l0.6-3.5l-1-2.8l-4.1-1.9l-0.6-4.3l-5.5-3.6l-8.9-3.6l-2.8-4.6l1.2-3.4l-0.8-6.2l-3.1-1.9l-4.6,2.3L881.4,471.5z"/>
</g>
<g id="NorthernEurope">
	<polygon class="st0" points="993.7,306.2 1001.4,312.5 1009.3,314.8 1013.6,317.2 1016.5,324.1 1018,330.1 1019.3,335.8 
		1021,343.9 1024.1,348.9 1025.6,351.8 1024.9,356.4 1019.8,362.7 1016.6,368.9 1014.5,371.6 1011.6,373.9 1000.5,374.9 
		998.1,378.9 996.3,382.9 997.2,388.4 998.5,390.1 998.5,391.8 993,395 990.1,398.8 985.8,403.7 983.5,407.3 983.5,424.5 980,424.5 
		957.5,423.7 957.5,412 960.8,406.7 962.5,403.5 959.2,400.2 954.8,398.8 949.2,400.5 946,401.8 935.8,401.7 931.5,403.4 
		929.5,411.4 928.7,413.5 919.3,416.7 911.3,418.3 907.7,418.5 901.7,421.8 897,419 894.8,416.7 889.3,417 883.5,419.8 881.8,421.1 
		880.8,420.5 878,415.6 874.8,408.3 872.5,403.9 869.9,400.6 864.6,399.7 860.2,392.7 856.9,386.3 857.3,384.6 859.4,379.3 
		863.9,370 867.7,363.1 880.8,352.5 884.3,343 892,335.2 898.5,329 904.4,326 908.5,319.7 908.5,307 906.2,301.8 903.8,294.5 
		908.5,287.3 915.2,284 918.2,281.2 923.3,284.8 924.2,288.3 927.2,290.7 930.2,294.8 928.8,298.8 925.5,301.5 925.5,306 
		928.2,307.3 932.5,309.7 940.8,309.8 947,309.2 951,307.3 962,306.7 968.7,303.3 978.5,302.3 983.7,304.8 988.3,306.7 992.3,305.7 
			"/>
</g>
<g id="GreatBritian">
	<polygon class="st0" points="738.9,318.8 729.3,317.7 726,322.3 722.1,325.6 719,329.3 715,332.5 706,332.5 701,332.5 696,340.5 
		695.3,346.7 698.2,351.3 701.8,355.3 702,358.5 699.5,362.2 696.8,365.3 695.3,369.3 693.8,371.5 690.5,369.7 686.7,370.3 
		685.7,374 683.5,379.7 688.2,386.3 693,392.5 707,392.5 714,392.5 719.2,390.5 722,391.7 727,392.5 731,392.5 733,387.3 735,383.3 
		739.1,379.3 742.5,378 742.5,370 743.5,362.7 744.5,359.3 744.5,356 743.7,354 748.2,352 751.7,348.2 755.7,346.7 759.3,340.7 
		754.8,332.9 751.7,327.2 746.5,321.3 	"/>
	<path class="st0" d="M778.2,262.6l-5.3,1.9l-2.8,1.9H757l-3.2,1.8l-3,4.7l-1,4l-2.3,4.2v4.8l-2.3,4l0.8,7.3l2.2,3.2l-1.8,4.5
		l-2.3,4.8l2.8,5l4.5,1.8l2.7-4.2l1.8-0.5l0.3,2.5l-1.5,4l-2.5,3.2l0.8,5.3l3.5,4.2l4.6-1.7l3,1.7l-1.2,6.7l0.7,6.3l-5.8,6l-2,5
		l1.8,3.2l3.5,1.2l-6.5,4l-7.3,2.8l-1.8,3.8l2,3.7l4.3,2.3l7.5-1.7l5.2-0.3l4.2,2l6.2,0.7l3.4-1.7l-2.3,2.5l-11.2,1l-5.5,1.5
		l-4.2,4.4l-4.5,2.4l-2,4l-5.8,2.7c0,0-0.3,6,4.3,6.5c4.7,0.5,9-3.7,9-3.7l4.4-2l6.1,2.2l4.8-1.3l3.3-3.8l1.3-4.5l5.7,0.3l14.2,0.2
		l9.2-0.5l11.5-1.5h6.3l7.3-3.8l2.6-2.7l2.6-3.7V371l-6.8-2.2l3.5-3.2l4.7-3.8l1.3-6.7l-7-7.3l-8.7-0.2l-2.7,1.2l-1.2-5l-4.2-7.5
		l-6.2-8l-6.8-4.8l-6.1-2.8V318l4.2-3l0.8-6.2l-3.3-4.3H790l-4.3,1.2l1.5-2.2l-0.3-4.3l3.7-2.2l5.8-5l2-5.3l-0.3-7.2l-5.2-3.5
		l-6-0.2l-5.8,2.3l-3.8,1.8l-0.2-4.3l5-5.5l0.5-5.5L778.2,262.6z"/>
</g>
<g id="Iceland">
	<polygon class="st0" points="754.5,223 754.5,227 758,229.5 767,229.5 770.3,233.5 772.2,235.7 767.4,236.8 764.8,240.8 
		767.4,245.5 780,245.5 785.3,249 797.2,251.2 807,252.5 816,250.7 821.5,247.7 828.5,244.3 832.5,240.8 840.5,239.7 848.3,235.2 
		854.4,229 860.5,220.5 860.5,216 859.5,210.8 852.8,204.7 847.7,200.7 845.7,196.8 841.2,194.8 838.2,191.5 831,191.5 826.2,193.5 
		823.7,196.7 820.5,198.3 819.5,199.9 816,198.5 812,198.5 811,199.7 806.7,197.8 804.2,199 802.2,200.8 798.8,201.2 796.2,200.5 
		793.3,198.7 788.2,200.8 786.8,203.8 785.3,205.2 783.7,200.5 781.3,198 776.3,194.2 770.2,195 765,195.3 762.2,199 758.3,203.2 
		757.3,206.7 754.5,207.7 752.8,211.2 753.7,214.7 757.3,216 763.5,216.2 767.4,215.2 766.5,216.7 764.3,217.8 759.8,220.8 
		755.3,221.3 	"/>
</g>
<g id="Scandinavia">
	<polygon class="st0" points="1027,245.5 1019.2,245.5 1015,246.3 1009.6,248.2 1001.8,247.5 990.3,249.7 987.5,244 987.5,238 
		982.5,230.3 986.8,226 991.2,221.5 993.7,216.9 992.3,213.3 991.5,210.2 983.8,212.2 981.2,220.8 979,227 974,231.3 970.2,238.3 
		976.2,245.4 977.2,250.3 975.2,259.7 971.7,262.5 966.8,267.5 958.8,273.3 958.2,281.2 958.5,285.8 953.8,288.8 952,293.3 
		949,296.5 939,298.3 933.8,295 931.2,291.5 929.8,286.8 923.7,278.3 921,273.8 917.3,268.5 914.5,269.8 905.7,276.3 895.5,277.3 
		892.2,275.6 888.8,271.8 884,266 881.7,258.3 879.3,248.7 878,240.2 877.2,233 880.7,225.5 885.7,220 889,216 894.5,217.3 
		895.8,213.8 900.2,211 904,209.7 907,205.7 914.8,202.7 922.2,192.5 924.3,187.7 927.8,182.5 930.7,176.8 934.2,175.3 936.2,171 
		940.5,169.8 944.3,169 940.5,166 940.5,162.2 943.2,157.3 950,155 954.2,153.7 956.8,155 960.5,156 960.5,153 966.4,150 
		969.7,152.3 975.5,153 975.5,150.2 977.3,147.2 980.2,144.7 983.5,145 983.5,142.3 987,141.5 992.3,141.5 995.8,142.4 995,138.7 
		999,135.5 1003.2,136.3 1004.8,140.5 1006,139.5 1009.3,139.5 1010.8,141.8 1012.5,146 1012.5,142 1012.5,138.5 1020,136.3 
		1024,137.4 1028.6,139.5 1031.1,141.6 1033.9,140.5 1038.2,142.4 1036.8,147.2 1037.6,148.4 1036.4,151.9 1035.5,158.6 1034,164 
		1032.5,168 1032.5,176 1030.5,180.9 1030.5,201 1033.3,204.8 1033.1,211.3 1032.6,218 1034.6,221 1035.5,224.6 1037.6,228.3 
		1039.4,231.8 1037.5,236.4 1028.6,245.4 	"/>
</g>
<g id="Ukraine">
	<path class="st0" d="M1028.5,246.2l4.1,3.6l2.8,0.7l-3.4,1l-3.4-1.1h-5.6l-5.6,2.3l-5.6-0.6l-5.9,0.6l-4.5,1.8l-1.3,3.1l-0.6,5.1
		l2.1,4.4l2.6,3.3h4.8l4.4-2.6l-0.9,2.6v6.5l-0.6,2.6l-3.4-1.6l-2-5.4l-4-1.1l-6.9,0.1l-1.1,5.6v3.8l-3.4,3.5l-2.6,4.9v5.6l3.8,4.5
		l0.5,5.5l0.8,1.2l7.8,6.3l7.8,2.3l4.3,2.4l2.9,6.9l1.5,6l1.3,5.7l1.8,8.2l3.1,5l1.5,2.8l-0.7,4.7l-5.2,6.3l-3.2,6.3l-2.1,2.7
		l-2.9,2.3l-11.1,1l-2.4,4l-1.8,4l1.1,5.5l1.5,1.7l1.7,0.1l2.5-4.7h8.1l1.6,4.7l2.8,5.3l8.9,7.2l2.1,10.4l-1.7,4.9l1.7,4.7l-0.6,8.7
		l3.4,5l4.5,0.8l1.3,0.4l5.8,1.7l3.8-4l2.1-3.8l-0.4-4.1l5.4-1.3l1.2,5.7l7.7,0.9l0.6,5.7l11,5.1h6.9l8.3-6.2l4.1-3.8l-0.8-5.5
		l-6-0.1l-1.4-3.4l7-2.4l9.6-3.1l6.1-0.8l3.1-1.1l-1.5,2.8l-8.3,3.4l-2.1,3.1l-2.4,3.9l0.1,3.8l5,5l4.3,4.4l2.5,4.6l6.6,2.4h5.6
		l1.9,5.3l4.3,3.3l5.9,1.5l4.1,3.9l3.9,4.4l-2.1,4.4l1.1,0.8l7,3.1l4-3.1l5,3.1l9.8-3.1l7.3-0.9l6.5-5.9l4.8-0.7l1.8,1.4l1.2-0.6
		l0.6-3.6l-0.6-3l-1.6-3.5l2.4-1.9l1.1-3.3l-1.1-4.6l2.5-1.8l2.6-3.8l-1.4-3.6l-6.4-1.6l-5.6-5.4c0,0-2.6-7.3-2.3-10.3
		s-1.9-3.6-1.9-3.6l-4,0.6l1.1-3.6l-4.8-5.8l3-2.9l2.5-6.6l4-5.4l-0.1-1.4l-2.5-10.1l-4.1-6.3l-4.1-7.3l-1.1-10.4V347l4.3-4.6
		l-1.8-5.1l4.3-4.8l5.3-2.9l3.1,1.4l3.1-0.1l7.1-4.4h4.3l6.1-1.3l7.4-1.8l2.9-2.9l2.9-1.1l3.4-0.8l2,1.6l8.6,0.1l5.4,1.6l5.1-2.3
		l3-5.4h2.3l6.1-1.8l6.9-3.5l3.5-0.8l0.6-2l-4.1-6.9l-2-9l1-7.3l5.1-2.6l-6.1-9.1l-5-1.3l-4.1-0.8l-1.5-4.9l1.9-6.8l5.4-10.3
		l-7.3-4.4l1.5-4.1l-1.5-3.9l2.4-3l1.5-13.5l-4.5-3.1l1-5.9l0.9-1.9l-1.9-6l-2-9.8l3.5-5.9l7-7.4l5.4-6.3l2.4-2.4l-1-18l-1.9-0.3
		l-7.7-5l-9.8-5.5l-9.5-2.1l-6.5,1.2l-5.1,1.5l-2,2.5v3.4v2l-4.4-2.9l-5.8-0.8l-2.9,2.4l-3.5-2l-3.1-0.1l-3.1-2.4l-5.6,1.8l-7.9,2.3
		l-10.9,5.5l-5.3,3.9l-5.9,1.9l-6,1.6l-4.5,2.3l-4.1,5.4l-2.9-1.3l3.4-3.8l-1.9-4.9l-5.1-2.3l-6.9-5.4l-5.6,1.1l-5.1,1.7v5.9
		l1.1,6.4l-1.8,4.1l4.8,2.6l0.9,3l-8.1,1.1l-5.1,2.9l-3.8,4.9c0,0,1.5,9.1-4.8,4.8s-8.1-6.4-8.1-6.4l-5.7-0.9l-6.4,2.8v3.8l4,3.1
		l4,4.1l-0.5,2.3l-3.6,1.6l-5.9-0.8V192l-1.1-5l-4-2l-3.8-1.3l-5.4-2.9l-5.6-3.3l-4.9-2.8l6.8,1.8l10.1,0.4l8.8-1.1l10.1,0.9l4-1.9
		l8.1-0.1l6-3.3c0,0,5.8-4.3,3.3-8.9s-12.3-12.9-12.3-12.9l-10.9-1.2H1076l-4.4-1.8l-9.6-0.6l-5.1-2.1l-5.1,2.4l-4.8-2.3l-8.6,2.4
		l-0.8,1.9l-1.2,3.5l-0.9,6.7l-1.6,5.5l-1.5,4v8l-2,4.9V201l2.8,3.8l-0.1,6.5l-0.5,6.8l2,3l0.9,3.6l2.1,3.6l1.8,3.5l-1.9,4.6l-8.9,9
		L1028.5,246.2z"/>
</g>
<g id="Ural">
	<polygon class="st0" points="1256.3,151.3 1259.7,148.9 1260.5,147.7 1258.1,147.3 1254.2,145.2 1250.6,141.2 1245.9,136.3 
		1241.8,132 1243.3,125.6 1244.5,120.3 1243.3,116.5 1244.3,113.1 1246.7,110.5 1247.8,105.2 1248.7,101.9 1249.4,98.3 1253.5,97.5 
		1257.9,96.6 1260.8,101.7 1263,103.8 1272.2,107 1278.4,108.8 1279.4,114 1276,124.3 1276.2,129.8 1281.3,136.8 1286.8,140.7 
		1289.3,144.6 1290.4,154.2 1288.1,161.6 1284.3,165.2 1277.6,170.2 1273.3,173.9 1277,174.6 1281.4,172.6 1286.3,170.3 1290,168.3 
		1291.5,165 1291.5,159.8 1292.6,153.1 1298.2,149.1 1303.6,147 1308.1,150.6 1308.6,158.4 1314.3,165.1 1317.3,168.3 1318.5,169.1 
		1323.6,179.2 1324.7,183.4 1331.1,187 1333.1,193.3 1333.9,203.1 1344.5,213.9 1350.3,219.3 1357.2,229.2 1357,241.8 1361,246.2 
		1367,260.8 1363.8,265.3 1360.9,274.7 1355.6,278.8 1350.6,285.8 1355.5,290.1 1362.8,287.9 1366.3,289.3 1370.3,293.8 1369.5,297 
		1369.5,304.5 1374.7,304.5 1377.7,308.2 1381.2,312.2 1386.6,315.7 1392.2,320.1 1394.7,325.7 1395.1,334.5 1393.9,338.2 
		1393.7,339.2 1390,340.2 1385.9,343.5 1388.9,347.3 1387.1,350.3 1381.9,351.5 1377.6,355.3 1372.5,362.4 1372.2,365.6 
		1373.6,371.1 1371.9,373.7 1366.9,374.1 1365.9,373.3 1361.9,368.8 1358.2,363.9 1354.8,360.2 1347.7,358 1342.8,359.5 
		1337.5,358.2 1331.9,356.5 1328,356.9 1320.7,356.5 1315.1,353.3 1311,349.6 1307,344.8 1304.2,342.1 1298.8,341.1 1296.6,339.6 
		1290.5,332.6 1285.2,327.6 1281.8,324.9 1278.8,321.3 1274.8,320.2 1273.3,316.8 1269.2,312.5 1267.1,309.9 1260.1,307.9 
		1259.1,306.5 1255,299.6 1253,290.6 1254,283.4 1259.1,280.8 1253,271.6 1248,270.4 1243.9,269.6 1242.4,264.8 1244.3,258 
		1249.6,247.8 1242.4,243.4 1243.9,239.3 1242.4,235.4 1244.8,232.4 1246.3,218.9 1241.8,215.8 1242.8,209.9 1243.6,208 1241.8,202 
		1239.8,192.3 1243.3,186.4 1250.3,179 1255.6,172.8 1258,170.4 1257,152.4 	"/>
</g>
<g id="Siberia">
	<polygon class="st0" points="1394.8,339.7 1397.3,342.1 1400.5,345.5 1405.3,348.5 1410,348.5 1414.3,345.4 1418.9,345.7 
		1422.8,349.3 1428.5,354.5 1429.5,357.3 1429.5,360 1428,363.4 1430.2,366 1433.3,367.4 1438.1,368.8 1443,370.3 1443.6,369.7 
		1446.2,368.6 1447.6,362.4 1448.4,352.4 1446,346.3 1443.9,341.4 1444.3,332.3 1446.6,330.5 1445.6,325.6 1444.6,324.4 
		1440.9,321.5 1437.1,316.3 1433.7,315.7 1430.8,316.7 1427.9,314.4 1430.1,308.1 1430,301 1432.3,294.2 1429.5,288.3 1432,280 
		1435.3,274.2 1441.3,273.5 1448.4,264.5 1454.8,258.3 1463,255.7 1468.8,259 1472.8,264 1475.8,267.3 1479,269.2 1485.2,264.7 
		1487.5,259.3 1487.5,249 1485,239.3 1485.5,232.7 1488.8,223.5 1491.3,218.5 1490.5,217 1490.5,209 1488.6,202.6 1487.2,197 
		1483.5,194 1483.5,186 1478.8,179.4 1477.7,175.3 1478.4,169.8 1480.6,165.3 1476.8,162.5 1471,159.3 1465.4,158.5 1461.8,154.1 
		1464.2,149.2 1469.7,146.5 1471.7,142.5 1478,142.5 1483.8,144 1487.1,143.8 1492.9,141.8 1497.5,142.4 1497.5,132 1498.5,126.5 
		1502.1,116.3 1505.6,113.3 1504.8,105.3 1498.7,101.1 1497.8,95.8 1496.6,88.7 1495.3,87.9 1485.8,83.4 1477.2,80.8 1468.3,81.7 
		1463.5,84.1 1456,80.7 1452,78.7 1448.5,81 1446,86.7 1440.5,88.7 1430.2,93.2 1425.3,95.5 1421,95.5 1432.2,88.7 1439.7,83.2 
		1447.5,77.5 1449.5,70.2 1448,64.1 1440.3,60.5 1434,60.5 1430,60.5 1426.8,55.4 1423,48.5 1415,48.5 1406.7,53.5 1402.8,58 
		1396.3,54.2 1386.7,54 1379.8,55.5 1377.7,59.2 1378.5,64 1372.2,63 1364.7,61.8 1357.8,63.3 1356,66.2 1352.3,65 1348.3,65.7 
		1345.2,69.2 1337.5,72.5 1332,72.5 1329.2,76.3 1330.7,80.5 1330.5,83.4 1322.2,82.5 1315,82.5 1312.3,86.8 1310.2,91.8 
		1314.8,95.5 1320.3,100.7 1324.2,103.1 1327.7,105.5 1323,105.5 1317.2,103.7 1315.7,99.5 1310.8,95.3 1302,96.5 1300.3,101.2 
		1302.2,109.3 1306.8,114.2 1310,117.2 1312,121.7 1316.5,123.3 1314.2,125.5 1312,125.5 1309.7,123 1304.5,121.3 1300.3,120.2 
		1297,116.5 1295.7,112 1292.3,109.7 1289.5,110 1285.6,113.2 1283.5,117 1283.5,123 1285.7,128.3 1285.2,131.8 1286.8,138.3 
		1289.5,140.4 1291.5,145.5 1297,145.5 1301.7,144.2 1307.7,145.5 1311.7,151 1313.7,156.5 1318.5,164.3 1318.5,168 1318.5,169.1 
		1323.6,179.2 1324.7,183.4 1331.1,187 1333.1,193.3 1333.9,203.1 1344.5,213.9 1350.3,219.3 1357.2,229.2 1357,241.8 1361,246.2 
		1367,260.8 1363.8,265.3 1360.9,274.7 1355.6,278.8 1350.6,285.8 1355.5,290.1 1362.8,287.9 1366.3,289.3 1370.3,293.8 1369.5,297 
		1369.5,304.5 1374.7,304.5 1377.7,308.2 1381.2,312.2 1386.6,315.7 1392.2,320.1 1394.7,325.7 1395.1,334.5 1393.9,338.2 	"/>
</g>
<g id="Yakutsk">
	<polygon class="st0" points="1641.6,100 1638.5,96.8 1632,95.5 1627.5,94.6 1629.7,91.7 1627.5,86 1617.2,81.5 1610,85.2 
		1607.3,89.2 1601.7,83.5 1591,83.5 1584,84 1577,82.5 1572.7,86.7 1576.2,92.7 1575.3,94 1570.5,92.5 1564,92.5 1558,94.3 
		1552,92.5 1549.2,96.5 1550.5,100.5 1547,100.5 1542.3,96.5 1537.8,91 1533.3,89.5 1529.9,91.8 1527.5,93 1527.5,88 1529.5,81.5 
		1526.2,77.5 1517,77.5 1509,77.5 1504.2,78.7 1503,82.7 1499.8,85.8 1497.7,87.7 1496.6,88.7 1497.8,95.8 1498.7,101.1 
		1504.8,105.3 1505.6,113.3 1502.1,116.3 1498.5,126.5 1497.5,132 1497.5,142.4 1492.9,141.8 1487.1,143.8 1483.8,144 1478,142.5 
		1471.7,142.5 1469.7,146.5 1464.2,149.2 1461.8,154.1 1465.4,158.5 1471,159.3 1476.8,162.5 1480.6,165.3 1478.4,169.8 
		1477.7,175.3 1478.8,179.4 1483.5,186 1483.5,194 1487.2,197 1488.6,202.6 1490.5,209 1490.5,217 1492,217.6 1499.3,216.3 
		1506.1,214.3 1511.5,210.6 1513,207 1513.9,197.1 1517.4,195.8 1520.6,198.8 1525.8,199.9 1530.4,197.1 1536.9,194.8 1543.8,195.8 
		1548.3,194.8 1552.5,197.1 1560.4,196.4 1561.9,195.8 1570.8,186.3 1572,182.3 1574.5,177.8 1577,171.5 1581.3,167.9 1585.9,166.1 
		1586.6,162.1 1591.8,159.6 1598.1,158.8 1603.5,162.4 1604.6,170.3 1606.9,170 1610.4,168.3 1614.3,168.6 1617,171.5 1623.5,171.5 
		1628,169.6 1627.8,161.3 1631.4,159.1 1632.4,155.6 1635.4,152.6 1633.3,149.3 1630,146.5 1625.1,146.5 1621.9,144.9 1616.5,141 
		1616.5,127.4 1619.6,124.6 1621.9,121.6 1628,118.6 1632.8,114.3 1637.8,111.8 1640.5,107.9 1641.5,101.3 	"/>
</g>
<g id="Kamchatka">
	<polygon class="st0" points="1652,359.5 1659,359.5 1663.6,356.1 1664,351.3 1663.2,346.7 1666.7,342.1 1668.5,338.4 1671.5,328.4 
		1671.5,319 1674.5,306.7 1671.7,291 1665,278.7 1660,266.7 1663.3,259.3 1658.7,254.5 1654,254.5 1655.3,249.3 1648.3,247 
		1639.7,245 1634.1,247.9 1632.7,242.5 1625,242.5 1619,241 1623.7,232.3 1630.7,222 1634.1,214.3 1641.3,212.7 1646.8,210.9 
		1651.7,209.5 1657,209.5 1660.7,212.7 1668.4,212.3 1671.7,209.5 1674.5,206.3 1676,210 1677.7,213.3 1682.3,213.5 1689,213.5 
		1693.4,210.3 1699.4,206.3 1693.5,200 1693.5,194 1691,191.7 1693.4,187 1699.5,188.3 1699.5,197 1706.1,201.7 1712,200 
		1716.3,193 1720.3,187 1718.9,181 1720.3,177.3 1723.5,181.3 1723.5,187 1725.3,195 1721.7,198 1718.9,203.3 1713.3,211.3 
		1710,216.3 1708.9,221.3 1706.5,227 1706.5,235 1709,239.7 1708,247.3 1711.7,257 1716.3,262 1721.3,270.3 1727.7,274.3 
		1732.3,279.7 1739,277.3 1742.9,272.7 1744.5,266.3 1744.5,261 1746.3,253.7 1745,251 1741.3,248.3 1746.3,244.3 1744.7,235 
		1742.3,228.3 1741.7,220.3 1736.7,215 1733,209.7 1735.3,202.3 1738.7,202 1742.3,203.3 1746.3,199.7 1750,197.3 1753.7,199.7 
		1758.3,202.3 1764,198.3 1767,189.3 1775.7,181.3 1779.5,175.3 1787,173.3 1790.7,167 1788.7,160 1779.5,154 1772.5,151.3 
		1779.5,150 1782.3,148 1779.5,142.7 1784,145.3 1786.3,148 1790.7,149.7 1798.3,151.7 1804,159.7 1811,158.7 1817.4,158 
		1824.5,157 1824.5,151 1821.4,147.3 1825.5,141 1825.5,134 1816,131.9 1807.3,125.5 1800,125.5 1795.7,129 1792.7,120.3 
		1785.7,116 1769,110.3 1759.7,105.8 1754,102.5 1748,102.5 1745,98.5 1735,98.5 1718,98.5 1716.3,102.3 1718,108.3 1710.3,106.7 
		1703,103.7 1692.7,104 1679,104.6 1667.7,96.5 1658,96.5 1646,96.5 1642.7,99.7 1641.5,101.3 1640.5,107.9 1637.8,111.8 
		1632.8,114.3 1628,118.6 1621.9,121.6 1619.6,124.6 1616.5,127.4 1616.5,141 1621.9,144.9 1625.1,146.5 1630,146.5 1633.3,149.3 
		1635.4,152.6 1632.4,155.6 1631.4,159.1 1627.8,161.3 1628,169.6 1623.5,171.5 1617,171.5 1614.3,168.6 1610.4,168.3 1606.9,170 
		1604.6,170.3 1603.5,162.4 1598.1,158.8 1591.8,159.6 1586.6,162.1 1585.9,166.1 1581.3,167.9 1577,171.5 1574.5,177.8 1572,182.3 
		1570.8,186.3 1561.9,195.8 1561.1,197.1 1562.5,202.4 1562.5,208 1562.5,217 1562.5,221 1563.1,226.3 1561.9,230 1561.5,234 
		1561.5,238 1567.6,245.1 1572.8,249 1580,253.8 1586.2,259.4 1587.5,262.6 1587.5,267 1590.3,271.6 1594.6,269.1 1602,267.3 
		1612.9,267.6 1617.6,269.3 1620.6,273.6 1626.4,275.3 1628.1,278.6 1629.1,285 1630.5,287.5 1630.5,291 1628.9,295.6 1628.8,300 
		1625.8,304.6 1625.9,310.5 1626.3,319.9 1627.2,321.3 1629,324.8 1628,328.9 1624.1,331.5 1621.8,334.5 1626.1,338.4 1631.4,340.5 
		1635,342.5 1639,342.5 1640.3,347 1643.5,351.3 1646.1,354 1648,355.1 1649.5,356.5 1651.3,359.3 	"/>
</g>
<g id="Irkutsk">
	<polygon class="st0" points="1444.6,324.4 1440.9,321.5 1437.1,316.3 1433.7,315.7 1430.8,316.7 1427.9,314.4 1430.1,308.1 
		1430,301 1432.3,294.2 1429.5,288.3 1432,280 1435.3,274.2 1441.3,273.5 1448.4,264.5 1454.8,258.3 1463,255.7 1468.8,259 
		1472.8,264 1475.8,267.3 1479,269.2 1485.2,264.7 1487.5,259.3 1487.5,249 1485,239.3 1485.5,232.7 1488.8,223.5 1491.3,218.5 
		1492,217.6 1499.3,216.3 1506.1,214.3 1511.5,210.6 1513,207 1513.9,197.1 1517.4,195.8 1520.6,198.8 1525.8,199.9 1530.4,197.1 
		1536.9,194.8 1543.8,195.8 1548.3,194.8 1552.5,197.1 1560.4,196.4 1561.1,197.1 1562.5,202.4 1562.5,208 1562.5,217 1562.5,221 
		1563.1,226.3 1561.9,230 1561.5,234 1561.5,238 1567.6,245.1 1572.8,249 1580,253.8 1586.2,259.4 1587.5,262.6 1587.5,267 
		1590.3,271.6 1594.6,269.1 1602,267.3 1612.9,267.6 1617.6,269.3 1620.6,273.6 1626.4,275.3 1628.1,278.6 1629.1,285 1630.5,287.5 
		1630.5,291 1628.9,295.6 1628.8,300 1625.8,304.6 1625.9,310.5 1626.3,319.9 1625,321.5 1618,321.5 1614.8,319 1606.3,311.3 
		1603.3,306 1596.8,304.5 1595.8,299.8 1590.5,296 1588.5,290.2 1587.5,287.5 1582.3,286.3 1577.5,287 1574.3,288.7 1566.8,289 
		1561.8,288.8 1560.2,290.8 1557.2,293.7 1559.5,298.7 1560.2,303.9 1558.3,307 1555.3,309.8 1557.7,316.3 1556.8,321.3 
		1553.5,325.5 1546.3,328.4 1543.5,324.5 1543.5,322 1537.5,322.8 1534.8,326.7 1530.2,328.4 1526.5,326.7 1523.5,327.1 
		1520.8,330.5 1514,330.5 1512.3,328.4 1509.5,327.5 1488.7,327.8 1483.5,325.2 1478.7,325.3 1476,327 1472.2,328.5 1467.3,328.3 
		1463.2,325 1455.2,322.2 1449,322.5 1446.2,324.5 	"/>
</g>
<g id="Japan">
	<polygon class="st0" points="1722.3,283.5 1732.4,286.6 1740.9,290.3 1750,292.8 1763,291 1768.2,289.8 1772.2,292.8 1776.5,295.3 
		1779.5,299.5 1776.5,303.5 1771.7,306.5 1764,310.5 1763.5,315.3 1762.8,319.1 1755.8,320.5 1745,320.5 1741.8,323.5 1737,323.5 
		1739.5,326.5 1739.3,330 1736.3,331.5 1734.3,334.3 1729.8,336 1725,331 1722.4,327.3 1719,324.3 1720.5,319.5 1722.8,316 
		1719,312.4 1724,309.5 1727,309.5 1726.3,306 1728.8,304.3 1726.5,300.8 1719,293 1716.3,289.1 1718.5,283.5 	"/>
	<polygon class="st0" points="1693.4,432.3 1694.8,428.8 1698.6,425.4 1702.6,424.4 1705.4,421 1709.5,419 1715.1,420.5 
		1717.8,424.1 1718.9,427.4 1717.5,430.9 1714,432.9 1710.5,435.3 1707.6,438.4 1702.8,440.8 1699.3,438.8 1696,435.6 	"/>
	<polygon class="st0" points="1668.4,440.1 1671,437.2 1674.4,435.3 1676.6,433.5 1681,433.5 1686.1,432.5 1689,432.5 1691.5,433.8 
		1693.4,435.6 1697.8,439.1 1699.4,441.5 1700,445.4 1702,448.4 1700.8,450.9 1700.3,454.4 1697.6,456.4 1694.5,459.3 1691.9,461.4 
		1688,459.4 1684.1,457 1680.6,455.3 1679.8,451.9 1679.3,446.9 1672.9,446.3 1669.4,446 	"/>
	<polygon class="st0" points="1677,431.5 1683,431.5 1690,431.5 1693.4,428.4 1697.4,425 1701.3,423.3 1704.5,419.8 1708.4,417.5 
		1712,417.5 1714,417.5 1716.3,415.5 1718.5,415.5 1718.5,417 1720,421 1722.9,423.5 1727.6,425.8 1733.3,423.5 1736.6,420.3 
		1738,415.5 1740.3,412.8 1739.3,409.4 1742,408.5 1748,408.5 1750.9,405.8 1752.4,402.9 1754.4,404.3 1758.4,404.4 1761.1,402.3 
		1762.5,396.5 1766.3,397.1 1768.7,397.9 1772.5,395.8 1772.5,391 1772.5,388 1769.1,385 1766.8,380.1 1767.8,376 1767.4,369.4 
		1762.9,363.9 1765,359 1765.6,355 1765.8,346.3 1760.4,339.8 1754.5,336 1747.3,331.1 1744.8,328.4 1740.8,329 1739.6,331.8 
		1736.6,333.1 1734.5,336 1727.3,338 1724.1,340 1721.6,344.1 1720.6,347.9 1723.6,353.3 1726.8,356.5 1727.4,360.3 1726.5,363.5 
		1721.9,368.1 1722.4,373.5 1718.9,378 1712.4,379.9 1706.8,382.3 1705.1,388.9 1703.6,393.8 1703.9,400.3 1700.1,401.1 
		1694.1,402.1 1689.8,407.3 1686.8,412.5 1685.2,417.3 1680,421.8 1677,425.1 1674.5,428 	"/>
</g>
<g id="Mongolia">
	<polygon class="st0" points="1625,321.5 1618,321.5 1614.8,319 1606.3,311.3 1603.3,306 1596.8,304.5 1595.8,299.8 1590.5,296 
		1588.5,290.2 1587.5,287.5 1582.3,286.3 1577.5,287 1574.3,288.7 1566.8,289 1561.8,288.8 1560.2,290.8 1557.2,293.7 1559.5,298.7 
		1560.2,303.9 1558.3,307 1555.3,309.8 1557.7,316.3 1556.8,321.3 1553.5,325.5 1546.3,328.4 1543.5,324.5 1543.5,322 1537.5,322.8 
		1534.8,326.7 1530.2,328.4 1526.5,326.7 1523.5,327.1 1520.8,330.5 1514,330.5 1512.3,328.4 1509.5,327.5 1488.7,327.8 
		1483.5,325.2 1478.7,325.3 1476,327 1472.2,328.5 1467.3,328.3 1463.2,325 1455.2,322.2 1449,322.5 1446.2,324.5 1445.6,325.6 
		1446.6,330.5 1444.3,332.3 1443.9,341.4 1446,346.3 1448.4,352.4 1447.6,362.4 1446.2,368.6 1443.6,369.7 1443.9,370.7 1449.9,376 
		1452.5,379.5 1452.5,384 1454,388.8 1458.4,394.1 1465.1,402.1 1469.8,407.1 1474.4,408 1480.1,410.5 1486.6,414.8 1492.6,419.5 
		1499,419.5 1505,421.8 1511.5,420.5 1514.8,419.5 1519.4,421 1523,423.5 1525,423.5 1529.6,422.4 1533.8,423.5 1538.1,425.8 
		1539.5,427.8 1546.1,424.9 1552.3,422.6 1556.5,421.8 1560.4,422.8 1563,426.5 1566.4,428.9 1572,425.5 1576,425.5 1582.3,426.4 
		1587.6,427.7 1597.1,428.5 1601,428.5 1604.9,431.8 1609.3,433 1614.8,434.3 1616.2,433.9 1621.7,430.7 1626.3,426.8 1628.8,423.7 
		1627.5,417.7 1620.8,416.6 1614.8,414.9 1611,416.8 1608.5,418.1 1602.4,411.3 1598.4,410.1 1601,405.5 1606.6,403 1611.3,395.5 
		1614,395.5 1612.5,401.3 1612.5,405 1618.8,409 1623.3,405.8 1630.1,404 1631.5,406.8 1631.5,413 1636.3,414.7 1641.3,413.5 
		1645.3,413 1646.3,419 1648.5,422 1646.3,427.3 1648.5,431.5 1651.5,433.9 1659,432.5 1662.5,429.9 1661.3,425.3 1665.8,421 
		1668.4,416.8 1669.8,414.7 1668.4,408.8 1662.3,402.5 1653.8,393.3 1647.8,390.3 1644,383.8 1645.8,377 1650.3,373.5 1649,369.5 
		1649.3,366.1 1652,363.8 1651.8,360.3 1651.3,359.3 1649.5,356.5 1648,355.1 1646.1,354 1643.5,351.3 1640.3,347 1639,342.5 
		1635,342.5 1631.4,340.5 1626.1,338.4 1621.8,334.5 1624.1,331.5 1628,328.9 1629,324.8 1627.2,321.3 	"/>
</g>
<g id="China">
	<polygon class="st0" points="1614.8,434.3 1609.3,433 1604.9,431.8 1601,428.5 1597.1,428.5 1587.6,427.7 1582.3,426.4 1576,425.5 
		1572,425.5 1566.4,428.9 1563,426.5 1560.4,422.8 1556.5,421.8 1552.3,422.6 1546.1,424.9 1539.5,427.8 1538.1,425.8 1533.8,423.5 
		1529.6,422.4 1525,423.5 1523,423.5 1519.4,421 1514.8,419.5 1511.5,420.5 1505,421.8 1499,419.5 1492.6,419.5 1486.6,414.8 
		1480.1,410.5 1474.4,408 1469.8,407.1 1465.1,402.1 1458.4,394.1 1454,388.8 1452.5,384 1452.5,379.5 1449.9,376 1443.9,370.7 
		1443,370.3 1438.1,368.8 1433.3,367.4 1430.2,366 1428,363.4 1429.5,360 1429.5,357.3 1428.5,354.5 1422.8,349.3 1418.9,345.7 
		1414.3,345.4 1410,348.5 1405.3,348.5 1400.5,345.5 1397.3,342.1 1394.8,339.7 1393.7,339.2 1390,340.2 1385.9,343.5 1388.9,347.3 
		1387.1,350.3 1381.9,351.5 1377.6,355.3 1372.5,362.4 1372.2,365.6 1373.6,371.1 1371.9,373.7 1366.9,374.1 1366.1,374.6 
		1363.8,378.9 1362,383.8 1366.9,392.8 1365.5,397 1365.5,403.3 1363,404.8 1357.9,409.6 1355.8,416.3 1351.6,420.3 1340.3,421 
		1337.5,424 1337.5,437.8 1343.6,442 1349.7,449 1350.2,454.1 1350.5,455 1356.6,451.6 1360.3,452.9 1362.2,456.7 1364.3,459.5 
		1374,459.5 1379.5,461.8 1379.5,468 1381.5,474.8 1381.5,481 1381.5,486 1377.3,488 1375.3,494.6 1376.8,497.5 1381,497.5 
		1383.5,497.5 1383.5,502 1391.3,503.8 1399.8,507.5 1409.5,513 1416,509 1418.3,510.4 1421.3,515.5 1427,515.5 1432.3,514.5 
		1439,514.5 1441,519.3 1444.3,524.8 1447.8,522.3 1453,524.8 1457.3,520.8 1462,520.3 1463.5,522.5 1466.8,523 1473.5,522.5 
		1476.5,524.8 1476.5,530 1478.9,532.2 1481.9,536.7 1482.9,536.6 1488,533 1491,532.2 1496.6,534.5 1502,536.7 1503.5,540 
		1503.5,543 1506.9,545 1510.5,547.1 1510.5,550 1514.4,552.9 1519.3,554.5 1521.5,557.8 1525.8,559.5 1530,559.5 1532,554.8 
		1534.4,549.8 1539.6,551.8 1544,549.3 1546.3,544.5 1550.3,542.6 1554.4,543 1555.3,545.3 1560.6,545.9 1563.5,551 1568,555.3 
		1571.1,560.3 1572,561.5 1577,561.5 1578.5,565.6 1578.5,569 1582.4,571.5 1588,571.5 1590.5,568.1 1590.5,564 1595.1,560.4 
		1600.1,555.5 1608,555.5 1610.5,551.4 1610.5,546 1615.4,542.9 1623.1,537.3 1628.3,532.2 1634,521.9 1638.5,516 1636.6,511.3 
		1638.5,508.4 1637.6,496.3 1640.6,490.4 1641.3,484 1637.3,481.4 1640.5,476.9 1639.8,468.8 1635.8,464.9 1638.8,458.1 1633,454.1 
		1632.6,449 1625,445.6 1620,439.5 1616.1,434.9 	"/>
</g>
<g id="Afghanistan">
	<polygon class="st0" points="1175.4,392.3 1172.9,382.2 1168.8,375.9 1164.6,368.6 1163.5,358.3 1163.5,347 1167.8,342.4 
		1166,337.3 1170.3,332.5 1175.5,329.6 1178.6,331 1181.6,330.9 1188.8,326.5 1193,326.5 1199.1,325.3 1206.5,323.5 1209.4,320.6 
		1212.3,319.5 1215.6,318.8 1217.6,320.4 1226.3,320.5 1231.6,322.1 1236.8,319.9 1239.8,314.5 1242,314.5 1248.1,312.8 1255,309.3 
		1258.5,308.5 1260.1,307.9 1267.1,309.9 1269.2,312.5 1273.3,316.8 1274.8,320.2 1278.8,321.3 1281.8,324.9 1285.2,327.6 
		1290.5,332.6 1296.6,339.6 1298.8,341.1 1304.2,342.1 1307,344.8 1311,349.6 1315.1,353.3 1320.7,356.5 1328,356.9 1331.9,356.5 
		1337.5,358.2 1342.8,359.5 1347.7,358 1354.8,360.2 1358.2,363.9 1361.9,368.8 1365.9,373.3 1366.1,374.6 1363.8,378.9 1362,383.8 
		1366.9,392.8 1365.5,397 1365.5,403.3 1363,404.8 1357.9,409.6 1355.8,416.3 1351.6,420.3 1340.3,421 1337.5,424 1337.5,437.8 
		1343.6,442 1349.7,449 1350.2,454.1 1349.5,455.8 1341.3,463.7 1337.2,465.7 1332,467 1326,465 1321.8,461.5 1317,459.5 
		1309,459.5 1305.2,467.5 1300.2,469.7 1292.2,470.3 1288.2,471.5 1286,476.7 1280.8,483.7 1275.3,485 1272.5,486.5 1270.8,486.5 
		1265.6,480.4 1257,479.7 1252.3,473.2 1248.7,470.7 1242.9,471.3 1240.9,469 1238.3,467.1 1234.6,467.9 1230.8,470.7 1225.3,473.2 
		1223.4,472.3 1220.9,467.3 1221.2,455.8 1215.6,452.4 1211.9,450.8 1213.1,446.4 1216.6,443.1 1216.1,440.5 1211,440.5 
		1205.6,434.4 1203.8,430.3 1206.4,424.3 1206.7,421.3 1198.6,420.6 1193.8,413.4 1194.3,400.1 1199.5,395.3 1203.8,392.8 
		1201,386.1 1198,381.5 1190,381.5 1187.3,387 1184,391.5 1176.8,392.8 	"/>
</g>
<g id="MiddleEast">
	<polygon class="st0" points="1135.9,474.2 1122.6,476.1 1115.3,477 1109,474.9 1101.1,469.5 1097.1,468.5 1092,468.5 1089.3,466.5 
		1084,466.5 1081.8,468.4 1073.3,468.3 1064.9,470.9 1058.6,474.8 1051.6,475.6 1038.3,475 1034,470 1026.9,466.5 1025.9,466.9 
		1024.4,468.3 1019.4,468.7 1016.9,472.3 1013.5,478.6 1013.5,484 1010.5,487 1010.5,496 1011.1,497 1012.3,503.7 1014.9,508.4 
		1016.3,510.8 1016.7,516.9 1018.7,519.8 1023.8,521.5 1034.6,526.9 1039.8,529.8 1045.8,529.2 1048.8,528.5 1058,528.5 
		1062.8,530.5 1067.1,531.8 1074.6,532.8 1081.9,532 1087.3,528.8 1090.5,528.8 1091.5,533.8 1091.5,548 1094.4,550.8 1093.6,565 
		1089.9,571 1078.8,579.8 1079.4,581.3 1084.6,585.8 1089.6,593.9 1092.9,597.9 1096,602.4 1100.4,605.3 1100.7,606.4 1106.4,609.7 
		1113.4,613.3 1124.8,629.3 1127.5,632 1127.5,638 1131.5,639.2 1140.2,645.8 1145.2,654.3 1152.5,659 1155.5,665.2 1161.3,677 
		1166.8,686.6 1168.7,689.5 1199,689.5 1205.8,687.2 1214.8,685.7 1219,682.2 1230.5,676.7 1245.8,668.8 1259.5,657.5 1267.7,645.5 
		1276.7,634.5 1277.8,624.2 1282,619.5 1279,613.7 1277.3,607.7 1273.2,602.2 1267.7,599.5 1263,599.5 1256.2,590.5 1250.8,586.2 
		1243.7,589.2 1240.8,593.2 1235.5,595.2 1228.8,594.3 1227.3,586.3 1226.8,582.5 1221,582.5 1218.2,583.5 1216.3,579.5 
		1211.8,577.5 1210.2,572.2 1204.5,565.7 1201,557 1203.2,553.5 1210,553.5 1213.7,551.5 1216,551.5 1218.5,555.5 1219.8,563 
		1221.2,573.3 1225.3,575.5 1229.3,578.3 1235,581.2 1242.5,581 1244.7,582.8 1248,581.3 1251.2,576.8 1253.7,581.3 1259.8,584.5 
		1268,584.5 1276.3,578 1285.3,571.7 1287.7,566.8 1288.3,565.9 1288.7,560.2 1289.5,556.2 1286.5,553.5 1284.7,550.7 1286.5,548 
		1286.5,540 1282.8,533.8 1279.3,529 1276.5,525 1276.5,519.8 1273.8,516.2 1269.2,512.8 1271.5,509 1271.5,506.3 1270.5,503 
		1270.5,497 1271.5,493 1271.5,488 1270.8,486.8 1265.6,480.6 1257,479.8 1252.3,473.3 1248.7,470.7 1242.9,471.3 1240.9,469 
		1238.3,467.1 1234.6,467.9 1230.8,470.8 1225.3,473.3 1224.5,473.9 1223.8,475.8 1221.5,477.7 1215,479.5 1207.2,479.5 
		1204.6,478.1 1198.9,477.1 1192.2,474.5 1185.3,468.3 1184.1,467.8 1182.3,466.3 1177.5,467 1171,472.9 1163.8,473.9 1154,477 
		1149,473.9 1145,477 1138,473.9 	"/>
</g>
<g id="India">
	<polygon class="st0" points="1349.5,455.8 1341.3,463.7 1337.2,465.7 1332,467 1326,465 1321.8,461.5 1317,459.5 1309,459.5 
		1305.2,467.5 1300.2,469.7 1292.2,470.3 1288.2,471.5 1286,476.7 1280.8,483.7 1275.3,485.2 1272.5,486.8 1271.5,488 1271.5,493 
		1270.5,497 1270.5,503 1271.5,506.3 1271.5,509 1269.2,512.8 1273.8,516.2 1276.5,519.8 1276.5,525 1279.3,529 1282.8,533.8 
		1286.5,540 1286.5,548 1284.7,550.7 1286.5,553.5 1289.5,556.2 1288.7,560.2 1288.3,565.9 1287.9,566.5 1296.5,564.5 1303.7,565.6 
		1309.3,574.6 1314.8,576.2 1317.1,582.9 1324.5,583.7 1328.5,582.9 1323.3,586.7 1325.2,591.6 1331.2,596.4 1335.5,598.5 
		1342,598.5 1345.3,594.7 1348.3,591.2 1343.8,599.2 1343.9,622.8 1345.5,631.3 1351.5,639.3 1351.5,648 1361.5,657.5 1361.5,664 
		1364.8,670.8 1366.8,676 1371.8,681 1375.5,688.3 1380.5,697.1 1384.3,704.5 1393,704.5 1399.5,698 1402.1,691 1406.5,684.8 
		1406.5,677 1411,667 1412.3,658.5 1409.8,655 1412.3,649.3 1414.3,638 1418.3,631.5 1423.5,619 1429,612 1430.1,605.8 
		1433.5,603.3 1433.5,595 1437.5,590 1442.5,591.3 1451,590.5 1452.5,584.5 1452.5,578 1448.5,574 1448.5,572 1454.1,575.6 
		1454.7,575.3 1458.3,568.9 1463.5,563.4 1463.5,561.5 1467,561.5 1468.5,558.3 1468.5,554 1471.3,553.4 1474.3,552.3 1475.4,545.3 
		1477.8,543.3 1482.5,537.9 1481.9,536.7 1478.9,532.2 1476.5,530 1476.5,524.8 1473.5,522.5 1466.8,523 1463.5,522.5 1462,520.3 
		1457.3,520.8 1453,524.8 1447.8,522.3 1444.3,524.8 1441,519.3 1439,514.5 1432.3,514.5 1427,515.5 1421.3,515.5 1418.3,510.4 
		1416,509 1409.5,513 1399.8,507.5 1391.3,503.8 1383.5,502 1383.5,497.5 1381,497.5 1376.8,497.5 1375.3,494.6 1377.3,488 
		1381.5,486 1381.5,481 1381.5,474.8 1379.5,468 1379.5,461.8 1374,459.5 1364.3,459.5 1362.2,456.7 1360.3,452.9 1356.6,451.6 
		1350.5,455 	"/>
</g>
<g id="Siam">
	<path class="st0" d="M1454.7,575.3l3.6-6.4l5.3-5.5v-1.9h3.5l1.5-3.3V554l2.8-0.6l3-1.1l1.1-7l2.4-2l4.8-5.4l0.4-1.3l5.1-3.5l3-0.8
		l5.6,2.3l5.5,2.3l1.5,3.3v3l3.4,2l3.6,2.1v2.9l3.9,2.9l4.9,1.6l2.3,3.3l4.3,1.7h4.2l2-4.8l2.4-5l5.3,2l4.4-2.5l2.3-4.8l4-1.9
		l4.1,0.4l0.9,2.3l5.4,0.6l2.9,5.1l4.7,4.3l3.3,5v0.9l-3.1,2.8l-5.7,4.3l-1.5,5.4l1.5,7.6l7,3l5.9,5.4l2,5.9l5.4,2.3l3.7,3.1
		l0.7,7.6l2.9,3.9l4.5,9l2,15.1l-1.4,9.5l-8,10.4c0,0-6.1,7-11.6,10.6s-9.3-1-9.3-1l-1.3-6l-5.6-6.8l-4.5-4.4l-7-4.6l-4.8-0.6
		l-3.8-6.9l-2.4,3.1l4.1,8.5l5.9,5.6l-2,5.4l1.1,7.6l6.4,8.5l2.4,7.4l-3,2.6l-7,1.1l-5.6-0.6l-4.5-6.5l-7.6-3.5l-2.8-7l-1.4-3
		l-1.9-7.3l-3.1-6l-2-4.8l-1.6-4.3l4.3-4.8l0.8-5l-7.4-9l-9.4-9.4l-2.5,0.8l-2.6,2.5l-8.9-0.8l-7.5-6l-4.1-5.8l-5.1-2l-2.9-4.6
		l-2.8-3.6v-4.4l-3.7-5.1l-7.9-10.1L1454.7,575.3z"/>
</g>
<g id="Indonesia">
	<polygon class="st0" points="1446.5,729.4 1451.3,723.5 1458,723.5 1463,726.5 1472,726.5 1484,737 1492,742 1497,745 
		1502.7,747.7 1507.7,750.7 1512.3,754.3 1517.1,759.3 1521.5,768.7 1521.5,773 1525.8,775.3 1532.7,780.7 1536,788 1537.3,794.7 
		1544.8,796.7 1548.5,805.7 1548.5,814 1543.3,818.3 1537.7,821 1531.3,825.7 1519,822.3 1509.3,809 1500.3,798 1491,786.7 
		1480,782.3 1478.7,776.7 1476.3,771.3 1468.7,759.3 1460,751 1451.8,739.7 1446.5,734.3 	"/>
	<path class="st0" d="M1527.3,751.3l4.7-7.2l11.7-4.7l7.4-7h4.5v-8h4.5l3-5.2l2.7-5.7l5.3-2.7l3-4l1.3-6l9.4-2.3l5.8,4v4.3l12.6-0.3
		l1.4,5.7v9.7l-5.2,2.9c0,0-4,10.1-1,14.5c3,4.3,1.7,13.3,1.7,13.3l-3.3,12.7l-6.8,7.3l-0.3,8.7l-2.7,5.7l-7.7,7.3l-4.3,4l-5-1.1
		l-4.1-1.8h-5.9l-5.7,0.5l-5.8-2.3l-5.2-3l-3.7-4.7l-4.3-4.3l-2.3-7.1l-5.8-7.6l-1.4-12.3L1527.3,751.3z"/>
	<path class="st0" d="M1632.6,745.5c0,0,13.4-1.9,11.1,3.3c-2.3,5.2-8.5,12.3-8.5,12.3l-7.1,3.5h-9.5v1.5l7.8,1.5h4.7l2,3.9
		l-1.8,5.1H1621l-4.7,3.1l3,3.9h4.7l1.7,4.8l-2,3.3l3.7,4.3l4.7,6.9l-3.3,6.6h-7.7l-6.7-2.2l-5.7-7l-1.3,3.7l-2.8,6.5l-5.9,1.3
		l-5.1-3V802l-2.8-6.8l3.1-3.3l-3.4-4.3V781l3.5-3.5l0.8-5.8l2-4.8l2.5-3.5l1.3-6l6-4.8l6-1.9l8-0.4h5.5L1632.6,745.5z"/>
	<polygon class="st0" points="1539.6,826 1548.1,818.7 1556.3,814.5 1563,814.5 1570.5,811.5 1578,811.5 1582.8,813.5 1590,813.5 
		1596.8,816.2 1604.5,818.5 1611,818.5 1615.5,822.8 1615.5,828 1614,832.5 1607.3,835.5 1598,835.5 1590.5,833.3 1583,835.5 
		1578.8,831.5 1573.3,832.3 1570.3,835.5 1565.2,833.3 1561.5,831.5 1557,832.5 1548.5,832.8 1541.5,830.5 	"/>
</g>
<g id="NewGuinea">
	<polygon class="st0" points="1641.1,693.9 1651.6,684.8 1661.3,682.4 1667.3,686.5 1674.7,688 1679.5,690.7 1679.5,697 
		1681.7,702.3 1684.8,705.7 1687.5,701.7 1687.5,694 1693.7,690 1704.3,688.7 1722.3,690.3 1730.3,694 1735.3,695.7 1737.3,698.7 
		1746.3,705.7 1755,710 1762.3,711.3 1764.3,717 1770,725.7 1777.3,729.7 1780,736.3 1775,742.7 1780,745.2 1781.7,753 1788,758 
		1789.7,765.3 1791.3,772.3 1787,774.6 1781,776 1769,773 1763.7,770.7 1760,763.3 1749,758.7 1745.7,761.3 1744.7,765 
		1738.7,767.7 1726.3,768 1714.3,766.7 1708.7,760.3 1696.7,760.7 1692,757.3 1687.3,757 1684.7,748.5 1688,742.3 1688.7,734.7 
		1684.3,731.3 1682.7,727.5 1673,727.5 1668,723.5 1660,723.5 1655.3,721.7 1653.3,717 1656.7,713.7 1649.7,711.7 1648,705.3 
		1641.3,700.7 	"/>
</g>
<g id="WesternAustralia">
	<path class="st0" d="M1749,986.7l-10.5,0.3v-6.7l-6.1,6l-4.8-2.3l2.7-3.7l2.3-5.3c0,0-6,7.7-11.3,7.7c-5.3,0-7-11-7-11l-5.3-6.3
		l-9.3-3l-11.3-2.7L1673,962l-16,5l-13.1,8.3l-7.9,7.7l-11.3,1.3l-11,3.3l-9.2,8.7c0,0-13.5,2-22.2,1.3c-8.7-0.7-8.7-10-8.7-10
		l3.9-7.7l-3.6-6.7l-17-27.3l-6-7.3l1.5-4.7v-7.3l-8.9-9.7l2.4-7.7l-3-5.7l-2.1-8.5l5.5-2.6h4.7l5.7-4.2l13.7-8.7l20.2-8.3l16.2-12
		c0,0-3.7-9.7,1-13.7c4.7-4,8-4,8-4l1.8,3.3v-4.5h3.5l0.7-5l3.3-1.5l3.7-3.8l0.7-4.8h4.7l1.7-4.3l8.2-1.8h6.1l6.3,4l6.7,2.2l1.7-6.2
		l2.7-1.2l1.3,1.1l3.2,4.2l2.3,5.3l2.3,6.6v8.5l1,8.3v9.7v19v8l3,9.5l5.2,2.3l17.2-1.5l19.3,0.7l8.2-1.8l24.6,0.3l3.6,2.3V913
		l-2.3,3l-0.5,7.5l1,15.8l-1,4.7l-1.7,4.3l0.3,11.2l1.3,2.7l-2.5,4.5l1.3,7.5l-2,5.7l-2.5,6L1749,986.7z"/>
</g>
<g id="EasternAustralia">
	<path class="st0" d="M1749.5,987v7l0.8,5l8.2,7l6,1.7l5.7,2.8l4,3.1h4.8l5.5-3.5l2.8-0.7l1.8,3.2l4.7,2.2l7.7-2.8l5.8-3l10.2-1.5
		l7-0.8l2.2-7.5l3.7-12l7-10.8l10.2-10.5l6.7-12.3l4.5-14.7l-0.8-13.5l-4-12.5l-0.2-8.5l-8.2-8.5l-3.2-4.9l-2.7-4.3h-3.7l-2.5-2.7
		l-2.7-11.2l-5.2-5.3l-13-7.3l-3.2-4.7l-1.2-9.7l-9.2-9.3l-6.3-8.5l-2.7-9.5l-3-5.7l-2-7.5l-1.8-5.8c0,0-3.2-7.3-6.8-6.7
		c-3.7,0.7-7,5.3-7,5.3l0.5,5.3l-2.8,3.2l1.7,2.7l-2.5,6.2l-2.2,4.1l0.8,8.4l-1.8,8.7l-3.2,6.5c0,0-2.8,7.5-10.5,0.7
		c-7.7-6.8-10.8-7.7-10.8-7.7l-7.2-2.8l-7.5-5l-1.8-3.5l3-5.3l4.8-4.3l2.5-4.8l-2.2-6.7l-5.8-0.8l-2.3,1.7l-8.6-1.3l-10.1-2.3
		l-8.2,0.5l-6.2,0.7l-3,2.3l-8.2,0.7l-5,3.7l-4.3,4.2l-0.5,5.1l0.5,1.5l3.2,4.2l2.3,5.3l2.3,6.6v8.5l1,8.3v9.7v19v8l3,9.5l5.2,2.3
		l17.2-1.5l19.3,0.7l8.2-1.8l24.6,0.3l3.6,2.3V913l-2.3,3l-0.5,7.5l1,15.8l-1,4.7l-1.7,4.3l0.3,11.2l1.3,2.7l-2.5,4.5l1.3,7.5
		l-2,5.7l-2.5,6L1749.5,987z"/>
</g>
</svg>
