<?xml version="1.0" encoding="utf-8"?>
<!-- Generator: Adobe Illustrator 19.2.1, SVG Export Plug-In . SVG Version: 6.00 Build 0)  -->
<svg version="1.1" id="Layer_1" xmlns="http://www.w3.org/2000/svg" xmlns:xlink="http://www.w3.org/1999/xlink" x="0px" y="0px"
	 viewBox="0 0 1920 1080" style="enable-background:new 0 0 1920 1080;" xml:space="preserve">
<style type="text/css">
	.st0{fill:none;stroke:#000000;stroke-miterlimit:10;}
</style>
<g id="DemonWastes">
	<path class="st0" d="M620.9,277.9l-6.6,1.2l-7.4,4.2l-11.7,5.5l-9.5,6.9l-6,2.9H574l-5.8,7l-11.5,12.8l-12,5.3l-8.3,4.5L526,338.8
		l-10.8,9.3l-11.8,7.5l-7.3,5l-3.8,10l-7.8,8.5l-9,6l-11.3,5l-5.3,8.8l-7.5,10.8l-1.5,6.8l-11,2.8l-29.5,11.3l-15.8,5l-11.3,3.8
		l-6.5,6.5l-7.3,9l-3,7.3l-3.3,3l-16.3,4.8H334l-28.5,4.5l-10.8,2.3l-10.5,6.3l-17,3l-22.5,5.8L227.5,503l-7.3,7.5H217l-12.3,4h-2
		l-3.8-3l-3.8-0.9l-8,3.4l-8,15.7L172,540l-11,8.7l-6.3,3.2l-5.5,7.5l-6.3,2.2l-3.3,3.7l-8.3,0.2l-7,0.7l-8.8,2.2l-10.8-2l-7.3,0.8
		L84,568.8l-7-1.3h-8.8l-1.1-5.4l5.9-14l-2.5-19.5l6.9-7.5v-11l16.2-4.8l8.7-25.8H117c0,0,14.7-1.2,14.7-9.2s11.3-10.7,11.3-10.7
		l19.3-10.7c0,0,1.3-8.7-3.3-12.7s7.3-10,7.3-10l9.3-2.7l11.3,4l11.3,3.3l9.3,11.3c0,0,7.3,8.7,7.3-3.3s-5.3-12.7-5.3-12.7
		s-15.3-9.3-13.3-16c2-6.7,9.3-8.7,9.3-8.7l1.8-14.7l-4.9-10v-5l-4.8-12.5h6.3l11-6.5c0,0,6.7-8,11.3,0c4.7,8,8,14.7,14.7,13.3
		c6.7-1.3,18,0,18,0l16.7-3.3l10,4c0,0,7.3,0.7,0-5.3c-7.3-6-1.3-12.2-1.3-12.2s6,2.2,8-8.4s11.3-8.1,11.3-8.1l8.7-3.4H330l8.1,7.5
		l6.4-1.3V330l7.8-0.5l-6-5.2l-14.7-12l6.7-6c0,0,6.7-4.7,2.7-14c-4-9.3-3.3-16.7-3.3-16.7s10-2,10-6.7s8.7-6,8.7-6l12.7,6.7
		c0,0,6,9.3,14,5.3s17.3,0.7,17.3,0.7l8.7,6l6,5.3c0,0,0.7-13.3,6-15.3s9.3,0,9.3,0l2.7-8.7l-8.7-6.7l2-5.8l-8.7-9.1h4.3l4.3-10.5
		l-4.7-7.3c0,0-6-10.7,1.3-12.7s17.3-6.7,17.3-6.7l8.7,3.3l7.3,2l12,7.3l2.7-8l-4.7-12.1l4.7-7.4h6l3.3-10.5l-3.3-9.3l-4.7-6.7
		l-1.3-12l-2.7-15.3l15.3-7.3c0,0,8.7,0,10.7,8.7s10.7,13.3,10.7,13.3l10.8,8l8.8,11.3v4.3l5.8-3.7l9.3-2l7.3,4.7l12.7,1.3l7.3,2.7
		c0,0,4.7-1.3,4.7-5.3s4.7-10.7,4.7-10.7s13.3-2.7,6-14c-7.3-11.3,2.2-9.3,2.2-9.3l9.1,0.8H612l13-16.2l13.3-5.3l9.8-4.7l16.4,6v9.7
		c0,0-3.5,7,9.8,5.7c13.3-1.3,18.7,4,18.7,4l12.7,8l8.7,7.3l9.3,9.3l9.3,2.7l6.7,4l9.3-1.3l9.3,4.7l4,6c0,0,9.3,6,0,11.3
		c-9.3,5.3-12,3.3-12,3.3s-3.3,5.3-8.7,3.3c-5.3-2-8.7,4.8-8.7,4.8l-2.7,7.4H718l-5.7,0.5l-4-5.3l-6.7-0.7l-13.3-8.7L681,193l-6,7.3
		l2,6.7l2,4.7l-4.9,5.3l-7.6,8v7l0.5,8.3l-8,5.3l-5.3,5.3l2.7,4.7c0,0,2.7,9.3-7.3,12.7c-10,3.3-16,1.4-16,1.4l-3.4,6.7l-5.8,1.3
		L620.9,277.9z"/>
</g>
<g id="EdeenReaches">
	<path class="st0" d="M201,568.5h6l5-3h6h4h1h1h5l7.1,1.5c0,0,6.8,1.3,8.5,0s6.9-1.5,6.9-1.5l7.4,2.1l7.6,0.9h5.5l6.4,5.1l5.8,5.9
		h5.9l8,2l4.1,3.1l4.9,1.9h9h8l4,0.9l3.6,4.9l6.4-2l4.5,0.6l10.6,2.9l6.4,3.6l3,4.9l6.3,11.9l3.8,3.8l7.6,3.4l6,3.1l1.4,2.3l0.9,5.4
		v10l11,11l5.5,8.8l4.8,10l5,4.8l10,8l7.3,8l5.5,13.5l2.3,17l3.5,17.3l7.3,13.3l8.5,11l3.5,8l1.2,1l1.7-2l2.4-4.4l3.1-3.8l1.5-3.7
		l2.2-6.7v-6.8l1.3-5.5l2-9.6l3.1-5.1l2.3-5.1l-1.3-5.2l1.7-3.2l2.6-8.2l1.5-4.2l-0.6-0.8l-6-0.8l-2.2-2.9l0.6-2.4l1.5-2.8l2.5-1.6
		V686l-0.3-3l2-1.8l3.3-3.1l4.8-0.6h1.8l3.6-1.2l2.9-0.9l3.8-2.8l5.6-2.2l4-1.6l3.1-1.3h3l1.4-2h2.6l3.6-2.3l1.1-3.5l1.2-2.2h3.2
		l3.4,0.8l4.3,0.8l3.8-1.1l3.8-2.4l2.3-1.8l0.7-0.6l0.8-3l3.5-5.7l4.3-7.8l1.1-3.5l-0.3-0.9l-2.2-5.5l-2.2-2.8l-5.5-2.5l-4.5-2.7
		l-2.5-4.2l-4.9-0.7l-5.6-0.7l-4.9,2.8l-8.8-3.3H512l-6.5-5.5l-7.8-7.6l-2.2-5.3V590l1.5-3.1l-0.9-2.8l-0.6-3.3l3.9-5.9l6.5-6.3
		l6.4-3.4l7.8-2.9l6.9-3l5.6-1.6l5.4-0.6l4.9-2.1l-0.3-4l-1.1-4.5L535,541c0,0-4.4-7.1,0.3-9.9S546,524,546,524l8.3-5.1l7.5-1.8
		l8.9,0.6l5.9,1.5l2.8,3.6l4.9-1.6l2.4-3.5l2.6-5.4l4.8-1.1l6-1.4l2.8,1l7,3.8l6.3-2.4l5-0.4l5.4-2l4-0.8l0.9-0.9l4,0.4l0.6,0.8h3.3
		l4,1l1.8-2.3l8.5-1l2-0.8h0.9l4.8-5.9l4.4-8.3l5.8-7.4l4.3-3.8l6.9-4l5-6.7l-1.7-8.8l1.7-9.7l6-6.3l5.5-5.5l2-7.7l-3.2-10.7
		l-1.2-8.3l5-3.8l6-2.8l1-6.3l-1.8-7.6l-1.2-4.6l-0.4-0.6l-1.3-1.2l-2-2l-2.5-4l-0.8-5.5v-4.8l-1.3-4l-2.8-1.2v-2.7l-3.4-6.2
		l-3.6-3.8l-1.7-3.8l-2.5-1.7l-3.2-0.3l-5.2,2h-5.7l-6.2-1.9l-5.8-3.3l-7.5-7l-8.7-8l-3-3.5l-4.8-1.5l-3.3-2l0.8-3.2l-1-5.2
		l-2.7-2.8l-2-3.7l2.3-2.5l3-3l0.5-3.8l2-1l1.7-3.8l-3.5-1.8l-5.7-3.2l-2.6-3.7l-0.9-4.7l-1-1.1l-6.6,1.2l-7.4,4.2l-11.7,5.5
		l-9.5,6.9l-6,2.9H574l-5.8,7l-11.5,12.8l-12,5.3l-8.3,4.5L526,338.8l-10.8,9.3l-11.8,7.5l-7.3,5l-3.8,10l-7.8,8.5l-9,6l-11.3,5
		l-5.3,8.8l-7.5,10.8l-1.5,6.8l-11,2.8l-29.5,11.3l-15.8,5l-11.3,3.8l-6.5,6.5l-7.3,9l-3,7.3l-3.3,3l-16.3,4.8H334l-28.5,4.5
		l-10.8,2.3l-10.5,6.3l-17,3l-22.5,5.8L227.5,503l-7.3,7.5H217l-12.3,3.5l-2,2l-2.1,6l-2.4,4.3l-3.7,1.8l5.3,3.3l2.8,4.8v4l-3.9,5.5
		l-2.9,4.5l-1.3,7.8l4.1,6l1.4,2.5L201,568.5z"/>
</g>
<g id="ShadowMarches">
	<path class="st0" d="M224,784.8l-5.7-7.2l-4.2-8.5l3.2-8l3.5-6.8l2.2-5l-1.5-4.8c0,0-3.5-8.5-0.2-11.8c3.3-3.3,10.3-8.8,10.3-8.8
		l12-9l2-2.2l1.1-1.8l1.3-3.3l-0.5-2.2l1.2-1.7l-1.2-3V698l0.2-2.8l-1-2.5l2-3.3l3.3-2.9h2l2.7-2h4.3l1.7-2h3.3l0.3-0.7l1.6-5.9
		l3.6-11.2l5.1-11.7v-6l-3.5-12l-9.6-16.8l-7-8.3l-10.7-13.5l-8.2-11.3l-5.8-8.3l-5.3-7.9l-2.9-2.9l-0.6-0.8h-1h-4h-6l-5,3h-6h-3.2
		l-7.7,0.9l-3.6,5.7l-6.7,5.1l-9.2,3.9l-1.5,10.5l-6.2,3h-7h-5l-7.7,2.2l-4-1.3l-2.7,3l-8.3-1.7l-3.7-0.7l-6-1.7l-7.3,2.3l-9.7,1.7
		l-10-2l-3.3-2l-10,2l-7.7,3.3l-2,6.3l-1.5,4l2.8,8.7l10,5l1,7l-2.3,7.3l-4,9l-7.6,9l-1.6,5.3v6.7l3.8,5.7L76,681l13-1.3l6,1.3
		l6.7,2l2.3,10l-2.7,5.3l-1.7,5.3H94h-7l-9,5.2l-2.3,8.9l2,5.9H83l-1.7,3.8l-6.3,4.3l-0.7,10.3l1,5.6H83l7.3-1.8l4.3-3.7l4,2.3l1,5
		l-1.3,5.1l-2,3.1H94l-3.9,5.8l-5.6,3.3v6.3l1.2,3.3l-0.3,4l1,4.7l4.8,3l2.4,1.7v3.3l-1.5,3.7l1.3,2.7l-2,2L90,804l1.7,2.3
		c0,0,1.3,6.3-0.3,7c-1.7,0.7-3.3,4.3-3.3,4.3s-0.3,4,1,4.3s3,1.8,3,1.8l1,4.8h3l0.5,2.8v1.7l1.2,3.3l5.7,3.3h5.7h8l1.7-2.2l3-1.7
		l3.3-1.7l2.3-4.3l1.6-7.3l3.6-3V815l1.2-5.3l4.7-4.7l5.7-2c0,0,5-3,3.7-6.7c-1.3-3.7,0-8.7,0-8.7l-0.3-5l1.7-6l1.7-2.7l1.7,1
		c0,0,2,1.3,3.7-1.3c1.7-2.7,6.7-1.7,6.7-1.7s2.7,0.3,3-2.3c0.3-2.7,2.6-3.7,2.6-3.7l3.3-5v3l2,3.7v3.3l-2,3v2l-4.5,5.7l-5,6.7
		c0,0-4.7,8.3-5,13.7s-0.3,14.7-2.7,19c-2.3,4.3-2,7.7-2,7.7l-1,7.3c0,0-2,5.7,0.7,7.3c2.7,1.7,7,9.7,7,9.7l-1,4.3l1.7,2.7l-1,3.7
		l-1,2.7l2,4l2.7,6.3L161,880l0.7,2.7l-0.3,4.3l1.3,2.7l2.3,4.3l3.3,4.6h5.7l5,1.5l3.3-3.3l7.3,1.3l3.7-2l5.2-1l3.4-4.7l3.7-3.7
		L203,882l-1.7-3.3l1.3-3l1-3.4l2-3.8h2.3l5.7-2.8l4.8-0.7l5.1-5.7V854l-1.8-4l0.3-2.7l-2-4.3l-1-5.3l-0.7-5.7l1-6.3L218,821l2.4-7
		l6.1-8.7V797l-2-6.3V786L224,784.8z"/>
</g>
<g id="Breland">
	<path class="st0" d="M995.5,639.3l4.4,15.5l3.5,8.4l4.8,7.8l4.3,6.8l5.5,4.8l1.6,5.8v1.6l-8.3,7l-7.6,9l-2.2,18.8l3.8,8.3l-3.7,3.3
		l-11,5.3l-15.7,11.3l-12,8.8l-12.5,4.8l-3.5,7.3l-6,6l-12.7,6.3L915.5,797L905,809l-13.3,5.8l-12.3,4.3l-17,7.5l-9.7,2.3l-14.3,5.5
		l-5.4,3l-1.9,1.4l-4.7,1.3l-12,3.5l-16,4.5l-14,4l-21,2.5l-22.5,5l-13.5,4L712,869l-13,3l-9,11.5L679.2,897l-3.5,5.5l-7.8,8.5
		l-2.3,6.7l2.3,11.3l-4.3,3.3c0,0-4.2,6.2-3.2,8.3c1,2.2-1.5,9.5-1.5,9.5l-4.7,3.8c0,0,0.3,4.5,0.7,8.8c0.3,4.3-3.3,8-3.3,8
		l-4.5,3.3l1.7,4.5l-0.8,6l-4.1,3.6c0,0,0.6,1.7,6.4,6.8s0,9.6,0,9.6l-4.9,4.4l-2.9,5.6l-0.4,1h-3l-9-1h-4.7l-4,0.3l-3.7,2.2
		l-3.7-1.5h-3.7l-4.5,2.3l-4.2,3.3l-5.5,4.2c0,0-0.3,4,0.3,8.5s-4.5,8.8-4.5,8.8l-12.3,1.5l-8.2,2l-9.5,4.3h-8.2l-5.8-2.8
		c0,0-4-2.6-6.8-8.9c-2.8-6.3-5.5,1-5.5,1l-3.8,3l-3.2,2.2l-6.7-1.5h-4.7c0,0-3.5-2.8-6.7-4s-2.8-6.8-2.8-6.8l-0.7-2.8l-1.7-3.8
		v-3.2l1.1-2c0,0-0.9-2.7,2.1-5.2s8.3-0.3,8.3-0.3l4.7,1.8l6.7,2.5l5.7-2.3l4.3-0.5l15.5-0.8l10.3-1.8l4-3.2l-0.5-5l-3.5,3.7l-7.5,3
		l-7.7-0.5l-8.3-0.5l-1.8-1.8l-4-0.7l-3.7-4.7c0,0-3.7-5.3-13.7-9.3s0.3-8.8,0.3-8.8l3-3.7l2-4.8l0.2-3.5l-1.7-5.3l1-7.8l2.7-5.7
		l5.2-2.7l10.3-14l3.3-8.8l3.8-6.7l-5-7.7l-0.8-3.8l-2.8-6l5.5-7.2l6.5-2.2h5.3l2.2-5.4l-0.3-5.4l2.2-4.7l4.3-1.2l2.3-4.5l6.2-2
		l7-1.3l-0.2-3.5h-4l-7,2.8l-4.2-0.6l-4.5-2.8l1.2-4.2l3.7-3.3l5.2-3.5l4.3-3.8l10.2-4.2l7.7-4.8l3-4l2.8-4.7l-0.5-2.5l-0.2-7.2
		l2.8-8.3l-6,5.5l-1,5.2v5.5l-3.1,4.8l-4.3,3.8l-3.7,4.2l-6.5,2.5l-10.5,4.8l-4.7,2.8l-4,7l-1.7,3.7l-1.7,4.7l-3.3,5.9l-6.3,12.1
		l-4.3,2.7l-5,5.2l-4,5.3v3l3.6,3.7l3.8,6.5l1.7,4.8l-2,6v9.8l-3.6,3.2l-3.3,4l-4,5l-7.2,4.7l-5.2,3l-3.7,4.8c0,0,2.3,7.2,2.8,11
		s-5.8,10.8-5.8,10.8s-4.3,4.3-6.2,6.5c-1.8,2.2-8.2,1.5-8.2,1.5l-10.7-2.8l-3.7-3l-7.3-3.3l-4.5-3.7l-1.8-2.7l-3.7-3l-1.2,3.7
		l4,7.8l6.3,3.3l5,3.5l8.3,4.2l6.3,2.2l5.7,3.7c0,0,3.8,5.2,4.3,9.5c0.5,4.3-3.8,9.7-3.8,9.7l-2.8,1.7l-2.3,2v5v3v4
		c0,0-2.3,2.5-1.3,5.2c1,2.7-3.1,3.3-3.1,3.3s-4.2,1.5-5.8,3.8c-1.7,2.3-8.5,0-8.5,0l-6.3-2.7l-7.3-2l-7.2-1.2h-4.3h-7.2l-3.2,1.2
		l-3.8-2.2l-4-1l-5.2-1.8l-1.2-5.7l-0.8-4.2l-2.2-3.5l-2.5-3.5c0,0,0-4.2,1.2-6.5c1.2-2.3-6.2-7.8-6.2-7.8l-3.1-1.2l-1.4-2l-4-1.5
		c0,0-3.5-3.7-5.2-9.3s1.3-11,1.3-11l4.2-4.7l3.5-4.8c0,0,2.3-2.3,1.3-5.8s-3.5,2.2-3.5,2.2l-1.5,2.8c0,0-4.2,2-7.8,3.7
		c-3.7,1.7-6.9-1.7-6.9-1.7l-5.8-3.3l-2.7-3.3l-1.7-3.5v-8v-3.2l1-5.8v-6.5c0,0,2.7-3,4-4.8c1.3-1.8,1-4.7,1-4.7v-4.8l1.2-4.5l1.2-4
		l0.8-1.7l-2.2-4v-3.7l1.1-4.4l2-3.7l2.1-6l1-6.1l-1.3-3.8l-3.2-5.5l1.5-1.2l1.6-0.6l3.8-1.1l6.8-2l6.3-4.5l5.8-8l6.3-6.1l3.4-4.8
		l2.4-3.8l4.6-2.5l4.8-3.4l2.5-5.8l0.9-7.3v-3.5l2.1-3.9l6.3-6.2l8-10.2c0,0,2.5-3.4-2.9-10.5s2.7-9.1,2.7-9.1l5.4-4.2l2.3-5.8
		l1.2-0.9l1.7-2l2.4-4.4l3.1-3.8l1.5-3.7l2.2-6.7v-6.8l1.3-5.5l2-9.6l3.1-5.1l2.3-5.1l-1.3-5.2l1.7-3.2l2.6-8.2l1.5-4.2l0.7-0.8
		l2.4-0.9l2.6,1.7l3.5,1.8l3.1,2l5.7,0.4l4.1-2.1l0.8-2.7l2.4-0.5l6.8-1.6l2.1-0.9l-1.3-3.5v-1.9l7.1-1.2c0,0,7-1.6,11.2,0.8
		s8.1,0.2,8.1,0.2l3.3-1l7.6-0.6l3.7,2.3l5.1-0.5l4.1-0.5l3.3-1.8l4.3-1.9l1.8-3.2l0.1-3.7l-1-1.9l1.2-1.6l7.2-6.2l6.5-4l1.6-2.2
		l2.6-3.5l-2.4-0.8l-5.3,1.3l-5.3-0.8h-5h-4.1l-4.9-2h-6.7l-6.5-0.4l-2.8-2.2l-2.5-2.3l-0.4-0.6l0.8-3l3.5-5.7l4.3-7.8l1.1-3.5
		l0.8-0.7l2.5-2.8l3-3.1l5.3-3.1l5.5-1.9l6.6-1l5.6-1.6l9,0.6l9.4,1l8.4-3.6l9.1-3.9l7.3-4l1.8,1.1l1.1,7.9l7.3,5.6l4.1,4.3v4
		l2.1,6.5l3.6,7.8l5.5,7.6l5,3.3l4.9,1.9l5.8,0.8l5.8,1.6l6.1,3.8l6.8-0.1l8.9-0.9l10.5,3.9l2.6-1.6h6h7.4l9.5-5.9l8-1.5l12.4-4.6
		l8-5.3l4.8-2.8h1.7l24.1,22.6l6,4.1l6,3l3.8,1.3l3.5,0.6l0.8,1.2l-0.7,5.3l-0.7,5.5l2.1,4.8l3.3,4.9l4.4,8.5l3.9,5.4l4,4.4l5.6,3.1
		l9.1,1.6h8l6.3-2.6l5.3-4.4l3.4-5.6l1.8-2.1l4.8-2.5l2.3-3.8l2.5-6l3.9-5l1.5-1.3v-1.1l8.1-4.3l14.1-9.4l16.2-9.8l15.3-9.3l13.8-8
		l22.3-8.3l9.5-3.8h1l3.5,1.2l2.4,1.2L995.5,639.3z"/>
</g>
<g id="Aundair">
	<path class="st0" d="M635.5,610.3l1.4,7.9l7.4,5.6l4.3,4.3v4l2.1,6.5l3.6,7.8l5.5,7.6l5,3.3l4.9,1.9l5.8,0.8l5.8,1.6l6.1,3.8
		l6.8-0.1l8.9-0.9l10.5,3.9l2.6-1.6h6h7.4l9.5-5.9l8-1.5l12.4-4.6l8-5.4l4.8-3l1.7-1.4l2.8-4.8l6.3-9.3l1.3-7.5l1.8-17l3.5-12
		l5.3-7.3l3-8v-14.8l3-10.3v-14l1-19v-11.3l1.8-16.5l3.5-22.8l4-20l3.5-16.5l4-16l1.8-6.5l8-7.3l15.5-10l11.3-4l14.3-4l15.5-3.3
		l14.4-1.8l17.1-1.8h8h8l1-0.6l0.9-3l0.6-3.9v-5.5l-1.5-8l-3.3-7.8l-4.8-11.3l-5.8-11.8l-3.3-5.3l-2.8-6.8l-2.3-6.5l-3.5-5.3v-5
		v-7.5l-2.4-6.3l-1.9-5.3l-5-3.5l-6-2l-4.3-1h-3.5l-7-4l-5.5-2h-5h-5.3c0,0-6,1.1-6,3.1s-6.5,5.6-6.5,5.6l-2.5,4.3l-1.5,3.3L842,286
		c0,0-4.5-0.5-5.8,1.3s-4.8,1.5-6.5,1.5s-4.8,3.8-4.8,3.8h-2.8l-3.8,3l-5.3,2.5l1.3,6.8l-1.8,4.3l-1.3,4.3l-3.5,2l-3.8,3.5l-2,6
		l-2.5,2.5l-1.3-2.3l-2-4.8l-4.3-1.5l-4.8,1l-5.5-2.3l-4.5-1l-7-3.3l-10.3,2l-6.8,3l-5,3.8l-2.8,4.5L740,329l-0.8,3.3l-2,1.1
		l-0.5,5.2l3,5l2.3,5l-4,3c0,0-2,3-5.5,5s-5.8-2-5.8-2l-4.4-1l-2.3-1l-2.4-3.8l-2.3-0.2l-1.5-0.8l-2.8-1.3h-1.9l-2.7,1.1l-2.7,2.3
		l-1.1,2.3l-0.3,4.7l-1.8,1.7l-0.6,3.4l2.2,4l0.4,2.1v2.7l0.8,4.4l2.7,1.8l0.4,2.2L706,380l0.4,3.6l-0.9,2.2l0.5,2l-0.4,0.4l1.2,4.6
		l1.8,7.6l-1,6.3l-6,2.8l-5,3.8l1.2,8.3l3.2,10.7l-2,7.7l-5.5,5.5l-6,6.3l-1.7,9.7l1.7,8.8l-5,6.7l-6.9,4l-4.3,3.8l-5.8,7.4
		l-4.4,8.3l-4.8,6l-0.5,0.7l-0.5,2.7l0.5,3.6l2.6,2.6l3.1,1.2h3.6l0.8,2.8l0.5,2.3l5.1,2.3l2.9-0.7l4,2.2l3,3.5l2.5,2.8l-1.2,2.9
		l2.9,5.4l2,3.4l2.5,0.5l0.4,8.5v4.7v5l1.3,5.8l-1.7,4.3l-5,4.3l-7.7,3.8l-5.2,2L663,588l-0.7,2.2l-2,2.5l-2.8,2.8H654l-5.3,2
		l-2.5,2.7l-7.6,4l-3.1,4V610.3z"/>
	<polygon class="st0" points="885.1,252.9 887.8,252.1 891.5,254.4 895.1,257.8 896.5,260.3 896.5,268 893.8,270 890.8,271 
		887.6,269.4 884.1,268.3 881.4,267.5 877.9,262.3 876.6,258.4 877.9,256.3 881.9,253.8 	"/>
</g>
<g id="Thrane">
	<path class="st0" d="M773.5,646.1l24.3,22.8l6.1,4.3l6,3l3.8,1.3l3.5,0.6l1.5,0.1l3.3,3.6l5.7,1.3l5.3,1.7l2.7-3.3h9.3l5,3.3l5,4.2
		l5,4l6.3,1.7l5.3-2.3l4-2.7l9-1l3.7-0.3l0.7-0.2l7.9-4.3l14-9.4l16.1-9.8l15.3-9.3l13.8-8l22.3-8.3l9.5-3.8l0.3-0.5l1.3-3.3
		l3.1-10.4l-0.7-9l-1.4-7.1l-3.4-1.6H973l-9.8-2.5l-6.3-2.2l-6.4-9.7V584l1.8-3.8l1.3-7.6l2.4-9.2l2.3-3.8l3.7-3.1l5.1-3.1l3.8-6.8
		l-2.8-7.5l-6.2-4.3l0.3-6.4l-0.2-6.2l-2-3.8l-4.8-6.9l-5-9.7l-6.6-8.3l-4.8-12.7l-3.4-9.5l-2.9-2.2l-3,2.1l-0.9,3.3v4.2l-0.6,4.4
		l-0.4,3.3l-2.6,2.8l-5,6l-7,7.3l-3.4,8.3v6.8l0.8,6.2l0.1,4.1l-0.8,3.1c0,0-1.8,0.2-1.8-0.3c0-0.4-1.2-5.9-1.2-5.9V522l-1.8-3
		l1.6-5.8l0.2-4.8l3.7-6.7l5.4-7.5l3.2-2.8l0.4-3l2.7-2.8l0.2-3l1.7-2.8l0.1-4.5l-0.4-5l0.9-4.9l1.9-6.4l1.7-3c0,0,0.4-4.3-1.9-5.7
		c-2.3-1.3-6.3-0.4-6.3-0.4l-5,1.6l-2.3,2.8l-4.3,0.1l-3-2.1l-2.8-2.2l-2.1,0.9l-6.9-3.4l-1.3-6.2l-3.3-5.8l-3-6.8l-2.3-4.4
		l-0.7-6.4l-3.3-3.7l-0.4-2.7l3.8,1.8l1.9,3.4l1.4,3.8l0.2,3l4.6,4.3l3.3,5.4l1.2,5.8l3.7,2.3l4.7,3.1l5.7,0.8l3.1-0.4l8.8-1.2
		l4.3-6.2l2.3-6.7l2.6-8.8l2.1-7.8l3.3-4.1l0.6-3.8l-1.7-6.4l2.4-9.5l-1.3-5.2l-0.4-4l-2.3-1.4l-1.1-0.5h-8h-8l-17.1,1.8l-14.4,1.8
		l-15.5,3.3l-14.3,4l-11.3,4l-15.5,10l-8,7.3l-1.8,6.5l-4,16l-3.5,16.5l-4,20l-3.5,22.8l-1.8,16.5V521l-1,19v14l-3,10.3V579l-3,8
		l-5.3,7.3l-3.5,12l-1.8,17l-1.3,7.5l-6.4,9.3l-2.9,4.8V646.1z"/>
	<polygon class="st0" points="943.6,447.1 948.4,449.3 950.2,452.7 948.8,456.5 944,456.5 938.5,453.3 938.5,449 942,446 	"/>
</g>
<g id="Droaam">
	<path class="st0" d="M462.4,774.4l-2.3,5.8l-5.4,4.2c0,0-8.1,2-2.7,9.1s2.9,10.5,2.9,10.5l-8,10.2l-6.3,6.2l-2.1,3.9v3.5l-0.9,7.3
		l-2.5,5.8l-4.8,3.4l-4.6,2.5l-2.4,3.8l-3.4,4.8l-6.3,6.1l-5.8,8l-6.3,4.5l-6.8,2l-3.8,1.1l-1.6,0.6l-2.1,0.3l-2.5-3.7l-0.7-5.1
		l1.9-3.9l3.3-2.3c0,0,4.4-4.5,0.6-6.8s-4-4.7-4-4.7H383h-4c0,0-0.9,3.1-5,2.9s-12.4-1.6-12.4-1.6l-4.4-1.3H355h-5l-0.9-1H343
		l-7.8-0.6c0,0-6.3-0.3-7.1-2.6s-3.4-5.5-3.4-5.5l-2.5-4.9L319,832l-5,4l-3.5,3.5v5.5l-12,6l-10.5,1.5l-9.3-1l-5.2-8V839l-4-2.5V834
		l-1.5-2l-4,1.8l-8.5-1.3H250l-4.3-8.5l-3.2-5.5V813l-3.5-5l-2.5-3.5V801v-6v-4l-4-2.8l-2.6-1.5l-2.2-1.9l-2.7,0.3l-1.1-0.3
		l-5.7-7.2l-4.2-8.5l3.2-8l3.5-6.8l2.2-5l-1.5-4.8c0,0-3.5-8.5-0.2-11.8c3.3-3.3,10.3-8.8,10.3-8.8l12-9l2-2.2l2.3-0.2h3h4l5.8-0.7
		l2-2.6l3.2-2.8h2l3.5-1.5l1.3-4.7l4.8-5c0,0,1.8-2.5,0.7-3.7c-1.2-1.2-3-4.5-3-4.5l-2.2-1.7H271l-2.3-1.8l-1.7-1.2l-0.8-0.7
		l1.6-5.9l3.6-11.2l5.1-11.7v-6l-3.5-12l-9.6-16.8l-7-8.3l-10.7-13.5l-8.2-11.3l-5.8-8.3l-5.3-7.9l-2.9-2.9l0.4-0.8h5l7.1,1.5
		c0,0,6.8,1.3,8.5,0s6.9-1.5,6.9-1.5l7.4,2.1l7.6,0.9h5.5l6.4,5.1l5.8,5.9h5.9l8,2l4.1,3.1l4.9,1.9h9h8l4,0.9l3.6,4.9l6.4-2l4.5,0.6
		l10.6,2.9l6.4,3.6l3,4.9l6.3,11.9l3.8,3.8l7.6,3.4l6,3.1l1.4,2.3l0.9,5.4v10l11,11l5.5,8.8l4.8,10l5,4.8l10,8l7.3,8l5.5,13.5
		l2.3,17l3.5,17.3l7.3,13.3l8.5,11l3.5,8L462.4,774.4z"/>
</g>
<g id="Zilargo">
	<path class="st0" d="M890,1023l-2,3.8l-2.8,2.7l-7.6,1.1l-6.1,2.6l-2,5.2l-3.2,3.5l-9.6,1.5l-3.5,3.5l-3.7,1.7l-3.5,1.3l-6.2-1.8
		l-1.2-3.7l-1.5-4.7l-5.2-2.8l-6.8-4.2c0,0-1.7-2.7,0-6.2c1.7-3.5,5.8-9.5,5.8-9.5l0.5-9.3V997l-1.2-3.8l-2.2-3.2l-0.7-3.2l-3.1-1.5
		l-0.9-0.7l-1.8-1l-2.2,1.3l-2.3,5.8l-4.3,11.3l-1.3,6.2v8.7l-2.3,3.2l1.7,5l0.7,5l-2.3,2.7l1.5,4.3l-0.2,2.8l1,3.7l-0.8,3.7l-1.4,4
		l-1.8,2.7v3l-2.3,3.3l-3.8,2.7l-1.8,2.5v6.5l-1.5,2.3l-3.3,2.2H790l-4.3-1.7l-1.5,1.7l-3.2-3.5l-3.2-3.5l-4.8-3.3l-1.5-6.2v-5
		l1.5-4l1.8-2.5l1-5.7l-0.3-6.5l0.7-8l1.7-3.8l0.8-5.3l-1.8-6.5l-1.8-2.3l-1.3,4.2l-2.2,4.5l-1.2,2.3l-0.7,4.2l-1,4.6l-2.5,3.1
		l-2.3,7.2l-6.8,6.3l-5.7,2.5l-4.2,7.3c0,0-3.7,2.5-7.2,1.2c-3.5-1.3-4.5-4.2-4.5-4.2l-4.7-1l-3.5-4.8l-1.7-4.8l-2.2-5.3l-3-7.4
		v-4.1v-5l1.3-3.5l-1.3-5.2l-2.1-1.7v-3.7l-3-4.2v-2.8l-1.2,2l-1.8,4.8l0.7,5.5l2,2.2l0.7,5.3l0.3,4.7l-3,4.8l-2.5,4.7l-5.3,5
		l-7.7,0.3l-2.8,1l-2.7,1.5l-7,1.5l-4-2.3l-5-1.5l-1.8-4.7l-1.8-3.8l-2.7-0.9l-0.8-4.5l-6.2-3.1H654l-6-4l-5-2.9l-0.6-1.1l2.9-5.6
		l4.9-4.4c0,0,5.9-4.5,0-9.6s-6.4-6.8-6.4-6.8l4.1-3.6l0.8-6l-1.7-4.5l4.5-3.3c0,0,3.6-3.7,3.3-8c-0.3-4.3-0.7-8.8-0.7-8.8l4.7-3.8
		c0,0,2.5-7.3,1.5-9.5c-1-2.2,3.2-8.3,3.2-8.3l4.3-3.3l-2.3-11.3l2.3-6.7l7.8-8.5l3.5-5.5l10.8-13.5l9-11.5l13-3l15.5-5.5l13.5-4
		l22.5-5l21-2.5l14-4l16-4.5l12-3.5l4.7-1.3l1.9,0.7l11.9,4l9.9,4.8l14.3,8.3l7.5,5l0.8,6.2l-2.8,8.2l1,11.2l0.2,7.2l1,12.7
		l3.7,14.8l6.5,10.8l4.5,8l-0.7,8.8l5.2,11.8l3.5,7.8v8l-2,9.2V997l-2.7,11.5l-3,6l-0.8,5.2l0.2,1.7L890,1023z"/>
</g>
<g id="Darguun">
	<polygon class="st0" points="891,1023.1 893.8,1028.5 902.4,1030.1 909.8,1028.2 915,1024 917.5,1019.5 923,1019.5 928,1019.5 
		929.3,1025.7 936.5,1029.9 945,1033.5 952,1033.5 961,1033.5 960,1028.5 962.7,1024.7 968.3,1022.5 972.5,1019.5 971.7,1014.2 
		969.3,1006 965.8,998 966.3,988.7 969.7,979.8 972.5,988.2 974.5,996.2 975.8,1003.2 979.5,1012.5 979.5,1019 979.5,1025 
		981.5,1031.3 987.5,1032.2 993.8,1028.3 996.7,1025.7 1002.3,1025.2 1007,1027.8 1012.7,1029 1016.2,1024.7 1018.7,1020.2 
		1019.5,1016.7 1023.7,1014.2 1026.7,1010.3 1029.7,1009.7 1035,1012.8 1042.7,1015.3 1051.8,1015.7 1056.7,1013 1060.7,1012.2 
		1061.3,1005.5 1062.5,1001.7 1062.5,995 1060.8,989.8 1064.5,982.3 1068,975.5 1067,968.7 1074.5,964.5 1083.7,961.2 1087.8,954 
		1093.5,951.3 1099.9,948.2 1098.5,941 1098.5,934 1097.3,925 1090.2,921.8 1083,921 1077.8,915.3 1071.3,912.7 1061.7,911.3 
		1056.8,908.8 1053.3,907.2 1047.4,902 1045.5,890.3 1045.5,884 1042.3,880.8 1038.5,882.3 1036.7,885 1035.8,888.5 1033,894 
		1029.7,894.2 1024.7,896.5 1024.3,899.7 1021.8,904.2 1018.5,907.2 1012.8,909 1006,910 1003.9,910.4 1004.7,908.3 1003.5,907.2 
		998,903 996.7,896.7 1002.7,887.7 1007.7,881.7 1006.7,875.3 1011,862.7 1007.8,852.3 998.7,834.7 1001.7,823 1010,808.7 
		1017,796.7 1022.7,783.7 1029.8,779.7 1035.3,771.7 1034.7,763.5 1038.5,755 1038.5,743.3 1034.9,722.9 1031.4,702.6 1029,695.6 
		1021,689.1 1020,689.8 1011.5,696.8 1003.8,705.8 1001.5,724.5 1005.3,732.8 1001.5,736 990.5,741.3 974.8,752.5 962.8,761.3 
		950.3,766 946.8,773.3 940.8,779.3 928,785.5 915.5,797 905,809 891.8,814.8 879.5,819 862.5,826.5 852.8,828.8 838.7,834.3 
		833.5,837.3 833.5,839.3 845.2,843.3 855,848.2 869.3,856.5 876.7,861.5 877.5,867.7 874.7,875.8 875.7,887 875.8,894.2 
		876.8,906.8 880.5,921.7 887,932.5 891.5,940.5 890.8,949.3 896,961.2 899.5,969 899.5,977 897.5,986.2 897.5,997 894.8,1008.5 
		891.8,1014.5 891,1019.7 891.2,1021.3 	"/>
</g>
<g id="Mournland">
	<polygon class="st0" points="1020,688.1 1018.1,682.4 1012.4,677.6 1008.1,670.9 1003.4,663.1 999.9,654.8 995.5,639.3 
		995.6,637.7 996.6,633.1 997.5,625.1 997.5,615 997.5,608 994.7,605.1 990.3,603.2 987.1,601.2 984.4,597.3 980,596.1 977.3,593.3 
		976.2,589.6 972.8,585 968.7,579.3 965.1,574.7 962.4,572.2 959.2,571.3 957.6,564.5 959.5,561.7 962.7,558.7 967,556.1 
		973.3,553.5 977.5,544.5 974.3,541.2 971.4,538 970.5,535.2 970.5,532 968.8,528.1 967.9,525.2 969.3,520.6 967.3,518 964.1,517.1 
		957.5,509.7 957.5,507 956.8,502.8 955.8,501.2 954.6,496.4 951.3,491.8 950.3,488.9 953.1,479.7 951.8,475.8 951.3,471.6 
		953.6,468.5 955.6,467.5 959,467.5 962.5,469.7 966.5,471.7 970.2,473.5 973.9,474.2 978.5,476.5 982.3,480.5 988.2,482.1 
		996.2,483.2 1006.8,483.3 1014.2,486.3 1022.2,491.3 1035,494.5 1042,494.5 1050.5,493.8 1053.8,497.3 1056.3,501.8 1059.3,504.8 
		1066.3,505.3 1071,503.5 1077.2,500.8 1081.8,497.5 1085.2,494.3 1090.3,491.3 1094.5,486.7 1100,484.8 1100.6,484.1 1106.9,482.5 
		1112,482.5 1117.7,486.3 1116.6,496.5 1113.8,504.3 1114.1,511.2 1118,524.6 1119.4,532.9 1118.4,539.7 1117.7,550.4 1123.1,558.4 
		1128.8,564.1 1133.4,568.2 1140.7,577.7 1149,581.7 1150,583 1152.3,588 1153.5,593.3 1152.3,594.3 1151.2,606.3 1148.9,620.1 
		1150.7,622.7 1149,627 1144.7,630.5 1140.8,633.8 1136.5,639 1131.3,644.2 1124.7,649.3 1120.8,656.2 1117,661.2 1112.5,667.7 
		1111.3,673.5 1109,676.3 1112.3,681.5 1113.2,685.8 1114.7,688.4 1118.8,690.5 1124,690.5 1130,690.5 1136,688.5 1142,688.5 
		1143,690.8 1146.7,698.3 1149.5,707.8 1149.5,715 1156.7,723.5 1154.7,732.3 1148.3,741.7 1140,751.7 1135.6,758.8 1134.7,768 
		1133.7,772.7 1134.3,778.2 1133.7,779.3 1131.4,788 1129.5,797 1129.5,806 1128,806.2 1125.2,807.3 1123.5,811.2 1119.5,814.2 
		1119.2,819.7 1120.8,824 1116.3,829.3 1115,834.5 1108.7,834.5 1104.5,838 1104.5,843.3 1105.4,848.2 1101.8,852.8 1097.3,856.8 
		1098.3,861.3 1105.3,866.8 1107.5,877 1107.5,886.5 1105,892.1 1107.8,897.2 1106.5,901 1106.5,904.7 1103.4,909.5 1098,912.5 
		1091.7,912.5 1088.8,911.8 1085.3,912.7 1078.8,911.2 1075.8,907.5 1072.8,905.5 1069,902.3 1065,900.5 1061.7,900.5 1057.8,901.8 
		1053.3,899.5 1052.5,895 1052.5,891.3 1051.7,885.5 1049.5,880 1049.5,875.7 1048,871.5 1044,871.5 1037.3,874 1033.2,876.5 
		1030.5,883.8 1024.8,889.7 1020,890.5 1017.6,892.8 1014.5,897.8 1013.5,903.7 1010,907.5 1006,907.5 1003.5,907.2 998,903 
		996.7,896.7 1002.7,887.7 1007.7,881.7 1006.7,875.3 1011,862.7 1007.8,852.3 998.7,834.7 1001.7,823 1010,808.7 1017,796.7 
		1022.7,783.7 1029.8,779.7 1035.3,771.7 1034.7,763.5 1038.5,755 1038.5,743.3 1034.9,722.9 1031.4,702.6 1029,695.6 1021,689.1 	
		"/>
</g>
<g id="Valenar">
	<path class="st0" d="M1143,690.8l3.7,7.5l2.8,9.5v7.2l7.2,8.5l-2,8.8l-6.3,9.3l-8.3,10l-4.4,7.2l-0.9,9.2l-1,4.7l0.7,5.5l-0.7,1.2
		l-2.3,8.7l-1.9,9v9l-0.2,1.4l2.8,4.8l1.4,4.8v3l2,7.2v5.8l-1.3,4.5l0.2,6l1.2,4.3l4,3.3l4.7,4.3l4.7,2.3l4.2,1.6l3.8,2.3l5.2,3.7
		l4.5-2.5c0,0,0.7-5.8,0.8-6.3c0.2-0.5,1.7-4.8,1.7-4.8l-2.8-4.8l1.3-4.5l1.5-2.2l-0.7-3.8l5-1.9l1.3-3.5l-1-4.7l0.5-1.4l1.5-5.5
		l6.8-2.3l6.5,1.8l5.3,2.6l3.6,5.8l2,5.9l8,2.1l3.9-2.4l9.3,0.1l5.5,5.7l6.4,3.9l0.5,4.7l-0.4,4.3l10.5,10.7l8.7,3.2l0.8,8.7
		l4.8,16.7l4,3.8l3.2,6.1h11h6.5v6.5l-2,13l6.5,13.5l7,2l12.5-2.3l6.4-0.2l3.6,5.7v8.3l1,5.8v7.2l9,6.7l5.5,0.8l12.3-2.2l6.7-2.2
		l7.3-8.5l3.3-5.3l-1.7-5.7l1.7-5.2l1.8-3.8V930l2.8-5l3.7-3l2-6.5l-1.3-8.5l-5.3-5.5l-0.7-6.3l4-4l-0.5-3.5l-6-5.8l-4.5-4.5
		l-5.8-7.3l-4.5-5.8l-1.2-9.8l-10.3-9l-9-1.2l-5.8-6.5l-0.3-4.3l5.2,2.5l3,4.3l7.2,1.2l6.3,2l8.2,1.8l2.5,4.2l-1.3,7l1.5,6l4.5,8.3
		l4.7,1.5l6.7,3.5l1.5,7l7.8,3l9-2.5l8.8-3.7l1.4-9.2V860l-2.7-7.8l7.3-6.8l1.8-5.7l4.7-9.8l-6.8-8.2l-1.3-7.8l0.8-6.5l-6.5-7
		l-5.5-6.7l-10-0.8l-5.7-5.3l-5.8-3l-0.5-4.3l2.5-0.7h7.2l1.5,3.2l6.8-0.7l3.2-2.5l4-5.2l-4.5-5.3l0.3-4.2l5-3.2l3.7-7.8l1.2-5
		l0.7-4.7l-2.3-4.7l-1.1-5.2V730v-4l-1-2.5v-2l-1-5l-2-6.2l-2-7.3v-8.3l0.9-6.9l2.6-7.5l2.9-8.7l1.7-5.3l-1.5-0.8l-8.4,5.6l-6,5.9
		l-7.7,2.4l-13.2,1.6l-10.2,1.7l-13.2,3.7H1322l-14,2h-9h-11l-13-1.7l-6-2.4l-7.8,1.1H1248l-10.8-0.7l-12.7,1.5l-9.5,0.2l-6.8,0.2
		l-9.7-4.7l-10.5-2.3l-7.3-5.7l-2.7-4.7l-1-0.8h-5l-4.7,5l-1.3,4.8l-2.2,5.3l-3.8,1.9h-5l-8.2,1.8l-3,1.2L1143,690.8z"/>
</g>
<g id="TalentaPlains">
	<polygon class="st0" points="1424.8,414.5 1441.9,418.7 1447.6,427.8 1450.1,435.1 1455.9,436.6 1460.1,446.1 1465.1,453.8 
		1469,462.9 1472,470.4 1476.1,477.3 1481.8,479.1 1485.4,484.4 1488.9,491.8 1493.8,490.4 1500.1,493.3 1501,494.3 1503.3,499.8 
		1507.5,512 1507.5,521.3 1503.3,528.3 1502.7,530 1498.3,536.8 1493.3,544 1489.7,553.5 1484.2,560.8 1479.3,572 1470.2,578.8 
		1456.7,583.5 1448,589.8 1440.5,595.7 1432.3,603.8 1424.8,608.7 1420,613.5 1413.5,620.7 1408.8,629.8 1406.2,638.5 1404.5,642.8 
		1401,656.8 1397.6,664.3 1396.1,665.6 1387.7,671.2 1381.7,677.1 1374,679.6 1360.8,681.2 1350.7,682.8 1337.5,686.5 1322,686.5 
		1308,688.5 1299,688.5 1288,688.5 1275,686.8 1269,684.4 1261.2,685.5 1248,685.5 1237.2,684.8 1224.5,686.3 1215,686.5 
		1208.2,686.7 1198.5,682 1188,679.7 1180.7,674 1178,669.3 1177.8,667.9 1181.7,665.7 1187.8,670.4 1193.1,675.6 1203.5,670.5 
		1211,670.5 1218.7,667 1219.8,660.2 1218.7,655 1222,649.7 1220.2,644 1212,639 1203.7,635.3 1196.7,632.3 1191.8,627.8 
		1189.3,622.4 1189,617.5 1185,617.5 1183.5,621.2 1181.7,625.5 1178.8,629.7 1171.5,632 1167.2,634.7 1160.3,635 1153.5,634.7 
		1153.5,627 1154.7,612.5 1155.3,602.3 1154.3,594.3 1153.5,593.3 1152.3,588 1150,583 1150.1,582 1153.5,579.3 1162.5,574.1 
		1169.5,568.4 1183,557.4 1187.8,552.6 1189,546.7 1195.7,541.2 1205.7,531 1212,525.5 1219.7,519.8 1231.5,510.7 1243.8,505.5 
		1260.2,497.5 1269.5,491.5 1273.5,479.7 1278.3,473.5 1288.5,467.2 1298.3,462 1313.8,450.3 1325,441.8 1343.8,429.3 1354.8,425.5 
		1367.2,421.8 1376.2,420.5 1387,420.5 1396.2,417.5 1412,417.5 1423,414.5 	"/>
</g>
<g id="Karrnath">
	<path class="st0" d="M1423.5,413v-9v-12l-4.2-9.2l-12.2-10.7l-8.8-8.5l-9.5-10.5l-3.5-7.7l-5-4.2l-2.7-9.5l-3.3-7l-11.7-9.8
		l-13.7-13.7l-8.2-13.7l-8.5-8.3l-3-6.5l-8.3-2l-10.8-11.7l-5.8-8.7l-3.8-7.3l-6.8-5l-6.8-9.2l-1.3-2.3l-1.1-0.2l-3.1-0.1l-9,1.6
		l-8,2l-5-3.7l-8.3-2.7l-8.3,3l-8,1.3l-8,4l-6.7,3l-4,6.3l-1.5,13.7v5v6l-4.8,1.5l-7.4,5.8l-3.8,8.7v9.3l-2.9,8.3l-9.6-0.3l-8-2.7
		l-12-1l-5.5-0.3l-3.5-1.7l-2.7-3.3l1.7-4l4.5-3.3v-4l-4.1-6l-2.4-1.5h-7l-4-1.9l-6.3-2.1l-4,2.2l-3-0.3l-2.3,1.7l-5.3-1.3l-3-2.2
		h-4.3l-4.7,2h-5.7l-1.3-6h-3.7l-5.3-3.4l-3-2.1l-10.3,1l-9.3,2.6l-7.3,2.1l-7.7,3.8l-2.3,6.5l0.3,6.3l1.7,4.7l-0.3,3.3l-3.7,3
		l-2.7,3l-2.3,0.3l0.3,3l-3,4l-0.7-2.7l1-6.3l1.7-3.3l-0.3-5.3l-3-8.3l-7-8.2l-6.7-4.5l-3.7-4l0.7-6.9l-6-7.5l-10.3-1l-7-3.7l-5-1.5
		h-10h-4h-5.7l-2.3,3.1l-7.3,3.1l-5.3,4.7l-8.8,5.3l-3.5-1.2h-3.7l-3.3,2.9l-0.6,4.1l-1.3,5.3l-2.6,3.7l-4.3,4.5l-1.7,2.7l-1.2,5.8
		l-4.3,7.7l-3.2,3.5l-1.1,2.8l2.2,6.8l1.3,5.8v11.2l1.3,6.3l2.5,5.9l4,4.3l3.4,10l3.8,10.1l1.6,7.7l-1.2,9.8l-1.1,7.8l1.4,3.3
		l0.2,4.5c0,0,0,2.9,0,3.8s-0.2,6.9-0.2,6.9l1.8,3.4l1,3.3l-1.7,2.8l-0.4,3.7l-1.3,1.9l-1.2,2.6l-1,4.3l-0.8,2.1l1,3.6l1.9,2.8v3.1
		l1.4,3.5l2,2.7l4.3,1.2l5.1-0.2l3.9,0.3l1.6,0.8l2.7,1.2l2.8-0.9l3-0.5l2-1.6l1.3-3.4l3.1-2.9l3.8-3.5l5.3-3.4l4.3-2.4l4.8-1.8
		l3.4-0.6l-0.4,1.9l-4.5,1.7l-3.2,1.3l-4.2,3.3l-3.9,2.8l-5.2,5.8l-2.6,3.7l-4.8,3.8l-4.8,3.6l-2.4,3.7l5.4,4.7l2.8,1.8l5,1.8
		c0,0,5.9,2.6,6.3,2.7c0.3,0.1,3.8,4.5,3.8,4.5s4.3,2.8,4.5,2.8s4.2,2.6,4.2,2.6l6.2,0.5l5.5,1.2l2.6,2.3l3.7,2.4l4.4,2.1l4.6,3.3
		l3.6,3.1l4.1,1.1l4.7,0.3l3.6-1.6h2.8l3.7,1.5l3.9-0.6l4.8-0.3l2.7,2.2l2.4,5.2l1.6,3.2l4.9,1.3l4.1-0.8l2-3l6.1-3.8h7.1l1.7-1.7
		l4.9-3.3l3-3.4l8.1-1.7h0.8l6.3-2h5.1l5.7,3.8l-1.1,10.3l-2.8,7.8l0.3,6.9l3.9,13.4l1.4,8.3l-1,6.8l-0.8,10.8l5.4,8l5.7,5.7
		l4.7,4.1l7.3,9.5l8.3,4l1.1,0.3l3.5-2.7l9-5.3l7-5.7l13.5-11l4.7-4.7l1.2-5.9l6.7-5.5l10-10.2l6.3-5.5l7.7-5.7l11.8-9.2l12.3-5.2
		l16.3-8l9.3-6l4-11.8l4.8-6.2l10.2-6.3l9.8-5.2l15.5-11.7l11.2-8.5l18.8-12.5l11-3.8l12.3-3.8l9-1.3h10.8l9.2-3h15.8l11-3.2
		L1423.5,413z"/>
</g>
<g id="OBarra">
	<polygon class="st0" points="1425.5,746.3 1429.2,742.5 1435,742.5 1438.2,746.3 1437.3,751.3 1435.3,753.7 1428.9,751.8 
		1425.5,749.7 	"/>
	<polygon class="st0" points="1397.5,666.3 1395.8,671.6 1393,680.3 1390.4,687.8 1389.5,694.7 1389.5,703 1391.5,710.3 
		1394.7,721.5 1394.7,721.5 1396,722.7 1402.8,729.8 1407.4,736.3 1412.2,740.5 1414.8,736 1420,734.3 1427.8,733.3 1431.8,732.5 
		1433.5,728 1433.5,720 1437.2,714.5 1446.8,709 1453.4,707.2 1462.5,703.7 1462.5,696 1456.8,685.2 1457,678.2 1462.5,673 
		1463.8,670.5 1466.8,673 1472,674 1474.8,676.2 1478.5,679.3 1476.5,683 1475.3,686.8 1474.7,691.2 1473.8,693.9 1476.2,698.5 
		1483.2,699.3 1489,697.8 1496.2,696.3 1500.3,695 1504.7,695.7 1507.5,699.2 1505.7,704.8 1505.5,708 1509,712.7 1511.7,717.2 
		1514.2,719.8 1517.2,723.5 1524.5,725.7 1532.3,729.3 1541.7,730.7 1545.2,729.3 1551.5,729.8 1558.5,729.5 1566.3,725.7 
		1571.2,721.2 1574,717.8 1578.2,716.2 1576.2,712 1575.8,708 1576.2,702.5 1574.8,694.8 1574,689.8 1579.7,687.2 1581.3,683.2 
		1585.8,682.8 1591,679.7 1592.5,672.8 1592.5,663 1592.5,653 1599.7,645.8 1606.2,640.7 1605.3,625.7 1601.2,616 1588.8,611.5 
		1579,611.5 1569,608.3 1561.2,607.2 1563.3,604.5 1567.7,601.2 1571.7,597 1577.8,595.4 1582.7,597.5 1591,597.5 1595,598.7 
		1604.2,595.4 1607.8,591.8 1610,585.3 1608,582.1 1594.7,578.5 1590,578.5 1590.2,576.5 1595,576.5 1602,575.8 1606.8,573 
		1610,565.2 1611.2,561.7 1608.3,558 1602.8,554.8 1600.3,547.2 1593,541.2 1588.3,537.8 1582,540 1578,543.7 1577.5,548.7 
		1577.5,556 1575.2,561.5 1573.5,556 1573.5,547 1574.5,540 1572,536.7 1570,532.8 1567.5,530 1562,533 1560.2,536.7 1555.7,534 
		1553.2,531.8 1548.7,534.8 1547.2,538.7 1542.5,538.5 1537.2,544.7 1536.9,550.2 1531.5,554 1531.5,558 1533.8,563.7 1534.7,569 
		1534.2,574.8 1530.5,568.2 1529.7,560.5 1528,555.3 1528.7,549.3 1526.5,539 1526.8,533.5 1523.5,530 1522,528.5 1512,528.5 
		1504.8,530.5 1502.7,530.5 1498.3,537.1 1493.3,544.1 1489.7,553.6 1484.2,560.9 1479.3,572 1470.2,578.8 1456.7,583.5 1448,589.8 
		1440.5,595.7 1432.3,603.8 1424.8,608.7 1420,613.5 1413.5,620.7 1408.8,629.8 1406.2,638.5 1404.5,642.8 1401,656.8 1397.5,664.3 
			"/>
</g>
<g id="MrorHolds">
	<path class="st0" d="M1424.8,414.3l17.1,4.3l5.8,9.1l2.5,7.4l5.8,1.5l4.3,9.5l5,7.6l3.9,9.1l3,7.5l4.1,6.9l5.6,1.9l3.6,5.3l3.5,7.4
		l4.9-1.4l6.4,2.9l1.6-0.6l9.9-10.5l8.5-10.9l9.6-7.8l13-5.5l8.5-10l4-10.3l-2.5-6.8l-10-12.3l-8.3-17.3l-3.3-12.3l3.3-9.5l-3.8-5.8
		l-8.8-5.3l-12-18l-5.8-17.5l-6.8-17.3l-2.5-12.8l-10.3-10.3l-7-17.8l-3.3-10.5l-9.5-5l-7.3-14.2l-5.3-13l-2.8-8.2l-7.3-7.7l-6-13.7
		l-10.5-11l-7.8-8.2l-3-10l-1.8-8.5l-9.5-10.2l-7.5-6.7l-7.8-4.2l-5-0.8l-3-0.2l-3.1-0.3h-0.7l-1.4,1.3c-9.5,5.4-23.5,3.2-27.5,15.2
		c-2,5,4,13-2,16c-9-3-15,7-18,14c-9,3-23,10-19,21c3,8,10,13,17,18.5c-0.8-0.1-1-0.4-1.3-1.1c0.5,0.1,0.9,0.5,1.3,1.1
		c-3.1,1.6-6.3-1.2-9.1-2.3c-3.3-1.3-6.7-2.5-10.2-3.4c-7.2-1.8-15.2-1.7-21.2,2.8v1l1.3,2.3l6.9,9.2l6.8,5l3.8,7.3l5.8,8.7
		l10.8,11.7l8.3,2l3,6.5l8.5,8.3l8.2,13.7l13.7,13.7l11.7,9.8l3.3,7l2.7,9.5l5,4.2l3.5,7.7l9.5,10.5l8.8,8.5l12.2,10.7l4.2,9.2v12v9
		L1424.8,414.3z"/>
</g>
<g id="LhazaarPrincipalities">
	<polygon class="st0" points="1621.6,469.5 1625.2,461.9 1628.7,459.3 1632.7,455.5 1641.2,456.8 1643,461 1646.5,468.3 
		1651.5,472.5 1659,472.5 1666.8,465.8 1671.8,462.8 1675.3,467.8 1679.5,472.5 1678.3,477.8 1674.3,480.8 1677.8,483.8 1677.5,490 
		1674,495.5 1664,495.5 1659.5,493 1658.8,495.5 1663,500 1666,507.3 1661.5,511.8 1656.3,519.8 1653.5,525 1648,528.3 1642,530 
		1633,528.3 1628.5,524.8 1625.5,518 1625.3,508 1627.8,505.8 1623.5,503.5 1621.6,495.8 1619.8,486.5 1625.5,483.3 1625,479.8 
		1625.5,474.8 	"/>
	<path class="st0" d="M1501.8,492.6l9.9-10.5l8.5-10.9l9.6-7.8l13-5.5l8.5-10l4-10.3l-2.5-6.8l-10-12.3l-8.3-17.3l-3.3-12.3l3.3-9.5
		l-3.8-5.8l-8.8-5.3l-12-18l-5.8-17.5l-6.8-17.3l-2.5-12.8l-10.3-10.3l-7-17.8l-3.3-10.5l-9.5-5l-7.3-14.3l-5.3-13l-2.8-8.3
		l-7.3-7.8l-6-13.8l-10.5-11l-7.8-8.3l-3-10l-1.8-8.5l-9.5-10.3l-7.5-6.8l-7.8-4.3l-5-0.8l-3-0.3l-3.1-0.6l-0.7-0.6l-4-2.7
		c-1.9-1.8-3.9-3.8-2.9-6.8c2-6,4-12,9-16c6-3,13-6,17-12c3-6,7-13,5-20c0-1-1-2-2-2c-5,0-10,0-14-3c-9,3-15-7.8-20-14.8
		c-1-12,5-21.8,15-27.8c1,0,3,0,4,0c19-10,42-6.3,57,7.8c11,4,24,2.9,35-0.1c3,2,4,5.9,2,9.9c-1,4,3,8,0,12c-1,1-3,1-2,3
		c2,3,5,7,8,6c11,0,19,6,25,14c3,4,6,9,8,13c1,3,3,6,2,9c0,4-6,6-8,9c-7,6-15,12-23.8,14c-0.3-1.2,2.9-1,0,0c-0.3-1-0.3-3-1.3-4
		c-3-2-5-2-8-4c-4-2-7,2-10,3c-2,1-4.3,4-3.3,7c2,6,8.8,6,13.8,9c0,1,0,3,0,4c-3,3-1.8,7-2.8,11c-2,5-8.9,10-5.9,16c1,3,4.1,5,5.1,8
		c3,5,4,9,5.8,14.3c3.4-2.3-1.2-3.3,0,0c6.3-4.3,12.3-9.3,20-10.3c-0.5-2.7-2,0.3,0,0c-0.8-2-1.7-5-0.7-7c2-3,0-7,2-10c3-4,9,3,13,5
		c4,3,5,9,8,13c3,3,7,5,9,9c1,5-1,10,0,15c-5,2-5,8-8,10c-2,2-5,2-7,3c-1,1-2,3-2,3c5,10,14,17,21,27c2,1,3,3,5,5c1,1,3,2,4,2
		s2-1,3-1c11,2,21,2,31-2c2-1,2-2,2-5c1-4,6-7,6-12c-1-7-2-14,2-19c4-3,9-3,14-5c5-3,1-11,4-15c5-7,14-11,20-17c2-3,6-5,6-9
		c1-7-1-15,6-19c3-1,8-1,9,3c0,4,4,8,4,12c0,1-1.3,1-1.3,2c2,6,6.8,11,11.8,16c0,1,0,2,0,3c2,1,4.3,2,4.3,4c0,7,5.1,12,5.1,19
		c0,1-0.9,3-1.9,3c-8,1-14,2.3-22,3.3c-2,1-4,1.3-6,4.3c-1,0-3,0-4,0c-3,9-5,18.8-11,25.8c-1,0-4-0.1-5,1.9c0,3-2,5.9-2,8.9
		c-1,2-3,2-5,2c1,7-1,15-7,20c-7-1-15,1-20,6c-3,4-6,10-1,15c2,2,6,0,8,2c2,3,5,4,8,5s5,3,8,2c4-3,7-8,10-13c1-2-2-5-1-7
		c1-1,2-2,3-3c6-2,12-2,18-2c7-1,14,6,14,14c-4,3-6,8-12,8.5c0.1,1.8,1.4,0,0,0c0,1.5,0,3.5,1,4.5c3,2,6,2.3,9,2.3c3,1,6,2.3,9,3.3
		c1,0,3,0,4,0c11,5,24,6.8,28,19.8c1,2,2,3.9,4,4.9c8,3,11,9.9,13,17.9c0,1-1,2-1,2c-2,0-4-1-5,0s-2,2-3,3c-3,5,0,10-1,15
		c-3,6-2,14-7,17c-8,5-18-1-20-9c-5-3-8-5-12-11c-6-11-20-5-29.5-1.5c1.4,1.8,1.2-0.5,0,0c6.5,4.5,8.5,13.5,3.5,18.5c-2,1-5,2-7,1
		c-6-9-16-6-25-6c-2,0-5-2-7-2c-6,0-12,9-9,14c3,8,6,16,11,23c4,4,8,7,12,11c-3,12-19,13-27,22c-8-2-15,1-23,0c1,3-2,6-3,9
		c-2,5,5,4,6,6c3,5-1,10-4,14c-2,2-5,0-7,1c-4,2-7,5-10,9c4,3,5,11,0,13c-7,3-15,5-18.8,12.3l-2.3,0.3h-10l-7.3,1.5l-1.5-1.8l4.3-7
		V512l-4.3-12.3l-2.3-5.5L1501.8,492.6z"/>
	<polygon class="st0" points="1503.5,45 1503.5,38 1507.5,30.7 1511.5,24.5 1518,24.5 1526,24.5 1538,24.5 1543.5,30.4 1543.5,38 
		1543.5,48 1543.5,57 1527,63 1521,56 1509,50.5 	"/>
	<polygon class="st0" points="1587.2,166.2 1588.3,160.8 1591.2,157.5 1600,157.5 1604.7,155.8 1606.2,159.7 1608.5,162.8 
		1607.3,169 1606.7,173.3 1608.5,177.8 1604.3,181.2 1603.8,185 1597,187.7 1591.3,184.3 1589.5,181.3 1589.5,178 1587.2,174.2 
		1585.8,167.8 	"/>
	<polygon class="st0" points="1633.7,148.7 1635.1,145.9 1637.9,144.5 1643,145.4 1646.5,147.7 1646.5,153 1643.8,155.8 
		1636.7,156.7 1632.5,152.2 	"/>
	<polygon class="st0" points="1623.5,76.9 1625.5,70.3 1625.5,64 1630.7,58.5 1636.5,56.7 1638.5,53.2 1638.5,49 1644.7,45.9 
		1650.8,43.5 1657,43.5 1658.5,45.7 1657.5,48.6 1660,50.5 1662,50.5 1665.3,46.2 1669.7,39.7 1674,37.2 1680.2,36.3 1682.7,33.2 
		1688,30.5 1695,30.5 1700.8,35.8 1710.8,39.7 1714.5,40.7 1714.5,44 1712.8,47.7 1707.8,51.7 1706,54.7 1705.7,58 1700.8,60.2 
		1694,60.8 1689.8,65.3 1687.5,70.3 1687.7,76.9 1689.3,83.2 1682.7,93.5 1675.7,95.5 1669.1,101.8 1660.3,103.2 1653.5,109.8 
		1649.7,113.5 1640,113.5 1630,108 1626.2,100.3 1627.7,94.5 1632.5,93.3 1630,87.7 1628.7,82.2 1625.8,79.8 	"/>
	<polygon class="st0" points="1695,116.5 1699.8,109.6 1704.5,104.3 1704.5,99 1706.7,88 1711,77 1715.3,72 1720,70.4 1722.5,69.5 
		1726,69.5 1729.8,68.5 1734,65.2 1745.5,61 1754.2,59.5 1762.8,58.7 1769.4,61.8 1771.5,65.8 1771.5,73 1776.2,77.3 1782.3,81.3 
		1788.7,89.3 1789.5,94.7 1789.5,100 1783.8,105.8 1779.7,111.2 1773.2,116.4 1768.7,117.8 1760,115.4 1756,111.5 1753,111.5 
		1751.2,113.5 1746.8,112 1746.5,106.8 1745.8,99.5 1743,99.2 1742.2,102.3 1740.7,109.2 1737.8,112.2 1732.7,110.3 1729.8,111.3 
		1727.5,114.8 1727.7,119.5 1724,119.5 1721.8,124.2 1718.3,126.5 1713.3,129.3 1708.5,132 1703.2,130.5 1699.8,126.5 1699.2,123.7 
		1696,123.2 1693.7,119.2 	"/>
	<polygon class="st0" points="1730.5,132.8 1731.8,127.7 1733.5,125.3 1733.5,123 1735.5,121.8 1736.5,119.5 1740,119.5 
		1743.8,120.2 1750,121 1755,124.3 1760.7,126.8 1765,130 1766.5,134.3 1766.5,138 1768,140.3 1765.2,143.5 1764,146.7 
		1760.5,148.8 1759.3,151 1755,153.1 1752.3,152.5 1746,152.5 1741.6,150.3 1736.5,146.5 1732.8,142.2 1730.5,137.5 	"/>
	<polygon class="st0" points="1704.5,169 1704.5,165 1706.7,160 1708.8,154.5 1711,153.1 1713,148.8 1716,144.8 1720.3,143.7 
		1724.8,146 1729.7,148.5 1735,153.5 1742,153.5 1745.3,154.7 1749.3,154.8 1752.9,156.3 1756.5,159.8 1756.5,164 1756.5,171 
		1757.5,176.7 1755.2,180 1749.3,181.3 1745.5,182.8 1744.7,187 1741.6,191.2 1735.5,193.5 1726.7,191.8 1725.3,187.8 1721.7,186 
		1716.5,184.5 1713.7,180.5 1711,175.7 1707.5,172.5 	"/>
	<polygon class="st0" points="1748.5,188.3 1753.3,187.5 1757,187.5 1758.5,191.2 1758.5,194 1753.9,196.5 1750,196.5 1748.5,192.7 
			"/>
	<polygon class="st0" points="1721.1,211.3 1726,210 1730.5,208.8 1736.3,205.7 1738.8,202 1742.8,200.5 1746.7,202.5 1750.5,204.3 
		1755.2,203.7 1757.5,205 1758.5,210.8 1755,212.7 1753.5,216.7 1753.5,221 1751.2,223.5 1750.8,229.3 1747.7,231.5 1743,235.5 
		1745.3,238.8 1742.1,241.2 1737.5,243 1737.5,248 1736.7,253.5 1733.8,256.7 1735.2,259.8 1736.5,262.8 1732,264.3 1728.2,266.8 
		1725,267.5 1721.1,263.2 1720,259.8 1720.8,253.8 1723,250.8 1719.2,247.5 1717.2,243.7 1719.5,240.8 1721,238.8 1720.7,232.5 
		1722.7,229 1720.7,223.7 1721.8,218.8 1719.5,214.3 	"/>
	<polygon class="st0" points="1753.5,258.7 1757.5,251.7 1758.5,246.2 1762.5,244.5 1771.3,240 1776.5,237.5 1778.8,241.5 
		1777.5,247 1776.3,253.2 1774.8,257.7 1773.8,260.7 1767.5,262.3 1763,264.5 1762.8,267.5 1759.7,266.7 1757.5,264.7 1754.8,260 	
		"/>
	<polygon class="st0" points="1717.5,283 1717.5,278 1717.2,271.5 1721.2,270.7 1724.4,271.5 1727.5,273 1727.5,277 1726.2,281 
		1722.3,284.4 1721.3,286.5 1719,286.5 	"/>
	<polygon class="st0" points="1743.5,295.5 1745.5,292.7 1745.5,290 1744.7,285.7 1746.8,281.9 1750.8,279.5 1758,279.5 1761.3,283 
		1763.8,285.8 1762.5,291.7 1762.8,295.3 1763.8,299.8 1759.3,306.3 1757.2,309.5 1750,309.5 1746.2,306.2 1743.5,301.3 	"/>
	<path class="st0" d="M1670.1,430.1l2.5-3.8l3.5-1.8h5h4l2.5-2.5l1.5-3l4.8-2.5h4.3l4.4-1.8l3.1-1.6l1.9-2.5l8-1.5l1.1,2.3l0.8,4
		l-0.8,1.8l-2.3,2.5l-1.8,2.1l-0.6,7l-3,1.4l-2.4,0.6l-0.8,3.8l-0.6,7.3l-3.4,3.8l-1.1,3.9l-7.5,2.5l-6,1l-2.9-2.9l-4.8-3.8
		l-3.4-2.9c0,0-2.1-4-2.5-4.4s-2.5-3.3-2.5-3.3l-2.3-4L1670.1,430.1z"/>
	<path class="st0" d="M1751.5,498.5h3.5l4-1.3l2.8-3.3l1.3-2.5h4h3l3,2.4l4-1.5l1.3-5l1.9-2l3.3-1.5l6.1,1.3v3.9l4.3,7.5l3.3,3.8
		l1.8,7l1.1,4.1l-3.1,4l-1.4,3l4.5,3.5l5.5,1.6l3.5,5.9l-2,6.3l-6.4,4.4v7l1.1,7.6l3.1,7.4l-2.5,4.5h-8.3l-3.8-6.5l-4.3-6.5
		l-5.6-7.4l-1.8-3.9l-1.4-5.9l-2.9-2.6l-3.6-2.6l2-3.6l2.9-2.3l1.5-2.6l-3.6-2l-4.6-1.3l-3.4,0.4l-4.8-1.1c0,0-4-4.1-4.1-4.5
		s-1.8-7.3-1.8-7.3l-3.4-2.6V498.5z"/>
	<polygon class="st0" points="1655.4,644.3 1660.1,639.5 1663.5,633.3 1663.5,626 1668.3,621.5 1679.5,618.5 1688.8,620.5 
		1692.3,623.8 1698.5,626.5 1707.5,626.8 1707.5,633 1711,643.9 1713.9,652 1716.5,657.3 1716.5,661 1711,664 1703.8,669.8 
		1696.5,672.8 1688,679.3 1683.5,681.5 1677,681.5 1671,681.5 1664.8,676 1659,675.8 1656.8,672.5 1655.4,669.5 1653.5,663.8 
		1653.5,657 1653.5,655 1655.5,650 	"/>
	<polygon class="st0" points="1724.1,639.4 1730.7,636.2 1734.8,637.6 1737.5,644.3 1737.5,650 1737.5,652.5 1734,652.5 1725.8,650 
		1723,647.3 1721.5,644.3 	"/>
	<polygon class="st0" points="1673,601.9 1671.1,597.8 1668.2,593.8 1673.2,590.1 1677.7,588.8 1685,585.3 1688.5,580.8 1691.7,578 
		1696,576.8 1702.7,578.5 1705,581.3 1710.5,578.8 1710.5,574 1708.5,564.8 1708.5,558 1707.3,553.5 1709,550 1707.5,547 
		1710.5,540 1711,532 1714.5,528.3 1712.8,521 1718,517.5 1723.3,514.5 1729,514.5 1735.5,516.8 1741.3,520 1744.5,525.2 
		1746.3,532.3 1751.6,540 1754.5,543.8 1754.5,549 1759.5,554 1764.5,559.8 1767,569.3 1764.5,573.3 1764.3,577.5 1764.8,584.3 
		1769,585 1773.5,582.8 1777,579.5 1780.2,583 1786.8,588.3 1789,592.8 1795.5,598 1798.8,605.5 1800.8,610.5 1803,615 
		1798.8,618.5 1792,621.5 1791.5,625.5 1787,625.5 1789,629.8 1792.3,632.5 1790.8,639.5 1790,644.3 1787,650 1782.5,652.5 
		1780.2,656.3 1774.3,658 1762.5,659.3 1758.5,655.5 1756.8,650 1753.5,642 1754.8,637.8 1751.5,634 1745.3,630 1747.3,624.8 
		1751.5,624.3 1749.8,618.5 1746,618.5 1745.5,620.3 1744.5,623.3 1744.5,626 1741.3,629 1737.5,628.8 1734,630.8 1729.5,632 
		1726.8,634 1723.8,632 1721.5,631.3 1716.5,627 1711,622.3 1706.8,619.8 1701,620.3 1695.5,616 1692.8,613.5 1693,610.5 
		1691,606.6 1690,603.5 1685,603.5 1678,604.3 	"/>
	<polygon class="st0" points="1826.5,498.6 1832.5,493.5 1836.5,493.5 1836.5,489 1841,486.5 1850,486.5 1854.5,492.4 1854.5,496 
		1862.3,498.6 1864,504.5 1862.8,510 1854.3,513.3 1848.8,514.5 1843,514.5 1833.5,511.3 1830.5,506.5 	"/>
	<polygon class="st0" points="1834.5,616.5 1834.5,607 1833.3,600 1834.5,594.3 1834.5,586 1831.8,578.3 1834.5,571.3 1840.6,566.5 
		1845.5,559.8 1845.5,553 1843.8,545 1847,538.6 1850.5,532.5 1858,532.5 1864,537.3 1870.6,540 1875.5,551.5 1875.5,557 
		1878.5,563.3 1878.5,570 1874,574.3 1871,578.8 1866.3,579.6 1857,586.5 1852,586.5 1851.5,594.8 1850.8,602.8 1845.3,610.3 
		1840.5,616.5 	"/>
</g>
</svg>
